<svg width="100" height="100" viewBox="0 0 100 100" fill="none" xmlns="http://www.w3.org/2000/svg">
<g clip-path="url(#clip0_151_65)">
<path d="M13.7766 88.5254H86.2237C94.9708 88.5254 99.3655 84.1727 99.3655 75.5511V24.4489C99.3655 15.8273 94.9708 11.4746 86.2237 11.4746H13.7766C5.07119 11.4746 0.634766 15.7854 0.634766 24.4489V75.5511C0.634766 84.2146 5.07119 88.5254 13.7766 88.5254ZM70.1521 49.8954C68.2687 48.2212 66.1342 47.3425 63.8742 47.3425C61.5305 47.3425 59.4796 48.1377 57.5544 49.8536L38.6369 66.762L30.8942 59.7307C29.1364 58.1821 27.2532 57.3452 25.2441 57.3452C23.4026 57.3452 21.603 58.1404 19.8869 59.6889L7.37298 70.9473V24.7837C7.37298 20.4311 9.71673 18.2129 13.9021 18.2129H86.0978C90.2412 18.2129 92.6266 20.4311 92.6266 24.7837V70.9891L70.1521 49.8954ZM31.8149 50.3557C37.214 50.3557 41.6503 45.9195 41.6503 40.4786C41.6503 35.0795 37.214 30.6012 31.8149 30.6012C26.3742 30.6012 21.9378 35.0795 21.9378 40.4786C21.9378 45.9195 26.3742 50.3557 31.8149 50.3557Z" fill="white" stroke="white" stroke-width="1.78571"/>
</g>
<defs>
<clipPath id="clip0_151_65">
<rect width="100" height="100" fill="white"/>
</clipPath>
</defs>
</svg>
