<svg width="170" height="215" viewBox="0 0 170 215" fill="none" xmlns="http://www.w3.org/2000/svg">
<path d="M169.4 0H0V214.43H169.4V0Z" fill="#363636"/>
<path d="M105.451 70.06C97.0812 70.06 88.5612 69.72 80.5912 67.5C72.7712 65.33 65.5912 61.12 59.1912 56.25C55.0012 53.08 51.1912 50.56 45.7512 50.94C40.4282 51.2231 35.3375 53.211 31.2312 56.61C24.3112 62.67 25.3512 73.89 28.1212 81.76C32.2812 93.63 44.9412 101.89 55.7012 107.25C68.1312 113.46 81.7912 117.06 95.4812 119.14C107.481 120.96 122.901 122.29 133.301 114.45C142.851 107.25 145.471 90.81 143.131 79.71C142.564 76.4279 140.818 73.4658 138.221 71.38C131.511 66.48 121.501 69.75 113.961 69.92C111.161 69.98 108.311 70.04 105.451 70.06Z" fill="#727272"/>
<path d="M130.781 38.87C131.323 38.87 131.761 38.4312 131.761 37.89C131.761 37.3488 131.323 36.91 130.781 36.91C130.24 36.91 129.801 37.3488 129.801 37.89C129.801 38.4312 130.24 38.87 130.781 38.87Z" fill="#CFCFCF"/>
<path d="M65.5913 30.66C66.1326 30.66 66.5713 30.2213 66.5713 29.68C66.5713 29.1388 66.1326 28.7 65.5913 28.7C65.0501 28.7 64.6113 29.1388 64.6113 29.68C64.6113 30.2213 65.0501 30.66 65.5913 30.66Z" fill="#CFCFCF"/>
<path d="M77.4412 123.97C77.9824 123.97 78.4212 123.531 78.4212 122.99C78.4212 122.449 77.9824 122.01 77.4412 122.01C76.8999 122.01 76.4612 122.449 76.4612 122.99C76.4612 123.531 76.8999 123.97 77.4412 123.97Z" fill="#CFCFCF"/>
<path d="M103.601 26V30.3" stroke="#BABABA" stroke-linecap="round" stroke-linejoin="round"/>
<path d="M101.451 28.15H105.751" stroke="#BABABA" stroke-linecap="round" stroke-linejoin="round"/>
<path d="M33.5413 44.1V48.4" stroke="#BABABA" stroke-linecap="round" stroke-linejoin="round"/>
<path d="M31.3813 46.25H35.6913" stroke="#BABABA" stroke-linecap="round" stroke-linejoin="round"/>
<path d="M36.7812 104.01V108.32" stroke="#BABABA" stroke-linecap="round" stroke-linejoin="round"/>
<path d="M34.6213 106.16H38.9313" stroke="#BABABA" stroke-linecap="round" stroke-linejoin="round"/>
<path d="M125.631 59.92V64.22" stroke="#BABABA" stroke-linecap="round" stroke-linejoin="round"/>
<path d="M123.481 62.07H127.781" stroke="#BABABA" stroke-linecap="round" stroke-linejoin="round"/>
<path d="M95.6606 34.8325L45.4676 41.4235C42.2144 41.8507 39.9235 44.8343 40.3506 48.0875L48.0011 106.349C48.4283 109.602 51.4119 111.893 54.6651 111.466L104.858 104.875C108.111 104.448 110.402 101.464 109.975 98.211L102.325 39.9495C101.897 36.6963 98.9139 34.4053 95.6606 34.8325Z" fill="#D2D2D2"/>
<path d="M110.281 43.38H59.5813C56.2953 43.38 53.6313 46.0439 53.6313 49.33V108.18C53.6313 111.466 56.2953 114.13 59.5813 114.13H110.281C113.567 114.13 116.231 111.466 116.231 108.18V49.33C116.231 46.0439 113.567 43.38 110.281 43.38Z" fill="white" stroke="#BABABA" stroke-linecap="round" stroke-linejoin="round"/>
<path d="M61.2012 89.94L71.3412 73.41C71.4409 73.1685 71.6101 72.9621 71.8273 72.8168C72.0445 72.6715 72.2999 72.594 72.5612 72.594C72.8225 72.594 73.0779 72.6715 73.295 72.8168C73.5122 72.9621 73.6814 73.1685 73.7812 73.41L79.5312 82.78C79.6288 83.0223 79.7967 83.2298 80.0132 83.376C80.2297 83.5221 80.485 83.6002 80.7462 83.6002C81.0074 83.6002 81.2626 83.5221 81.4791 83.376C81.6956 83.2298 81.8635 83.0223 81.9612 82.78L91.8012 66.78C91.8988 66.5377 92.0667 66.3302 92.2832 66.184C92.4997 66.0379 92.755 65.9598 93.0162 65.9598C93.2774 65.9598 93.5326 66.0379 93.7491 66.184C93.9657 66.3302 94.1335 66.5377 94.2312 66.78L108.671 90.31L61.2012 89.94Z" fill="white" stroke="#BABABA" stroke-linecap="round" stroke-linejoin="round"/>
<path d="M81.4212 71.19C83.183 71.19 84.6112 69.7618 84.6112 68C84.6112 66.2382 83.183 64.81 81.4212 64.81C79.6594 64.81 78.2312 66.2382 78.2312 68C78.2312 69.7618 79.6594 71.19 81.4212 71.19Z" fill="white" stroke="#BABABA" stroke-linecap="round" stroke-linejoin="round"/>
<path d="M32.179 177.909H32.8849L34.2969 180.286H34.3565L35.7685 177.909H36.4744L34.6349 180.902V183H34.0185V180.902L32.179 177.909ZM38.2033 183.08C37.8586 183.08 37.5562 182.998 37.296 182.833C37.0375 182.669 36.8353 182.44 36.6895 182.145C36.5453 181.85 36.4732 181.505 36.4732 181.111C36.4732 180.713 36.5453 180.366 36.6895 180.069C36.8353 179.773 37.0375 179.542 37.296 179.378C37.5562 179.214 37.8586 179.132 38.2033 179.132C38.548 179.132 38.8496 179.214 39.1081 179.378C39.3683 179.542 39.5705 179.773 39.7147 180.069C39.8605 180.366 39.9334 180.713 39.9334 181.111C39.9334 181.505 39.8605 181.85 39.7147 182.145C39.5705 182.44 39.3683 182.669 39.1081 182.833C38.8496 182.998 38.548 183.08 38.2033 183.08ZM38.2033 182.553C38.4651 182.553 38.6806 182.485 38.8496 182.351C39.0186 182.217 39.1438 182.04 39.225 181.822C39.3062 181.603 39.3468 181.366 39.3468 181.111C39.3468 180.856 39.3062 180.618 39.225 180.397C39.1438 180.177 39.0186 179.999 38.8496 179.863C38.6806 179.727 38.4651 179.659 38.2033 179.659C37.9415 179.659 37.726 179.727 37.557 179.863C37.388 179.999 37.2628 180.177 37.1816 180.397C37.1004 180.618 37.0598 180.856 37.0598 181.111C37.0598 181.366 37.1004 181.603 37.1816 181.822C37.2628 182.04 37.388 182.217 37.557 182.351C37.726 182.485 37.9415 182.553 38.2033 182.553ZM43.2352 181.439V179.182H43.8218V183H43.2352V182.354H43.1954C43.1059 182.548 42.9667 182.712 42.7778 182.848C42.5889 182.983 42.3502 183.05 42.0619 183.05C41.8232 183.05 41.6111 182.998 41.4255 182.893C41.2399 182.787 41.0941 182.628 40.988 182.416C40.882 182.202 40.8289 181.933 40.8289 181.608V179.182H41.4156V181.568C41.4156 181.847 41.4935 182.069 41.6492 182.234C41.8067 182.4 42.0072 182.483 42.2508 182.483C42.3966 182.483 42.545 182.446 42.6958 182.371C42.8482 182.297 42.9758 182.182 43.0786 182.028C43.183 181.874 43.2352 181.678 43.2352 181.439ZM48.3068 183.08C47.9886 183.08 47.7077 182.999 47.4641 182.838C47.2205 182.676 47.0299 182.447 46.8924 182.152C46.7549 181.856 46.6861 181.505 46.6861 181.101C46.6861 180.7 46.7549 180.352 46.8924 180.057C47.0299 179.762 47.2214 179.534 47.4666 179.373C47.7119 179.212 47.9953 179.132 48.3168 179.132C48.5653 179.132 48.7617 179.174 48.9059 179.256C49.0517 179.338 49.1628 179.43 49.239 179.535C49.3169 179.638 49.3774 179.722 49.4205 179.788H49.4702V177.909H50.0568V183H49.4901V182.413H49.4205C49.3774 182.483 49.3161 182.571 49.2365 182.677C49.157 182.781 49.0434 182.875 48.896 182.958C48.7485 183.039 48.5521 183.08 48.3068 183.08ZM48.3864 182.553C48.6217 182.553 48.8205 182.491 48.983 182.369C49.1454 182.244 49.2688 182.073 49.3533 181.854C49.4379 181.634 49.4801 181.379 49.4801 181.091C49.4801 180.806 49.4387 180.556 49.3558 180.343C49.273 180.127 49.1503 179.96 48.9879 179.841C48.8255 179.72 48.625 179.659 48.3864 179.659C48.1378 179.659 47.9306 179.723 47.7649 179.85C47.6009 179.976 47.4774 180.148 47.3945 180.365C47.3133 180.58 47.2727 180.822 47.2727 181.091C47.2727 181.363 47.3142 181.61 47.397 181.832C47.4815 182.052 47.6058 182.228 47.7699 182.359C47.9356 182.488 48.1411 182.553 48.3864 182.553ZM52.7638 183.08C52.4192 183.08 52.1167 182.998 51.8565 182.833C51.598 182.669 51.3958 182.44 51.25 182.145C51.1058 181.85 51.0337 181.505 51.0337 181.111C51.0337 180.713 51.1058 180.366 51.25 180.069C51.3958 179.773 51.598 179.542 51.8565 179.378C52.1167 179.214 52.4192 179.132 52.7638 179.132C53.1085 179.132 53.4102 179.214 53.6687 179.378C53.9289 179.542 54.131 179.773 54.2752 180.069C54.421 180.366 54.494 180.713 54.494 181.111C54.494 181.505 54.421 181.85 54.2752 182.145C54.131 182.44 53.9289 182.669 53.6687 182.833C53.4102 182.998 53.1085 183.08 52.7638 183.08ZM52.7638 182.553C53.0257 182.553 53.2411 182.485 53.4102 182.351C53.5792 182.217 53.7043 182.04 53.7855 181.822C53.8667 181.603 53.9073 181.366 53.9073 181.111C53.9073 180.856 53.8667 180.618 53.7855 180.397C53.7043 180.177 53.5792 179.999 53.4102 179.863C53.2411 179.727 53.0257 179.659 52.7638 179.659C52.502 179.659 52.2866 179.727 52.1175 179.863C51.9485 179.999 51.8234 180.177 51.7422 180.397C51.661 180.618 51.6204 180.856 51.6204 181.111C51.6204 181.366 51.661 181.603 51.7422 181.822C51.8234 182.04 51.9485 182.217 52.1175 182.351C52.2866 182.485 52.502 182.553 52.7638 182.553ZM55.9761 180.703V183H55.3895V179.182H55.9562V179.778H56.0059C56.0954 179.585 56.2313 179.429 56.4136 179.311C56.5959 179.192 56.8312 179.132 57.1196 179.132C57.3781 179.132 57.6043 179.185 57.7982 179.291C57.9921 179.396 58.1429 179.555 58.2506 179.768C58.3583 179.981 58.4122 180.249 58.4122 180.574V183H57.8256V180.614C57.8256 180.314 57.7477 180.08 57.5919 179.913C57.4361 179.744 57.2223 179.659 56.9506 179.659C56.7633 179.659 56.5959 179.7 56.4484 179.781C56.3026 179.862 56.1874 179.981 56.1029 180.136C56.0184 180.292 55.9761 180.481 55.9761 180.703ZM60.0012 177.909V178.357C60.0012 178.492 59.9764 178.637 59.9267 178.792C59.8786 178.944 59.8074 179.092 59.7129 179.237C59.6201 179.379 59.5074 179.503 59.3748 179.609L59.0566 179.351C59.161 179.202 59.2514 179.047 59.3276 178.886C59.4055 178.724 59.4444 178.55 59.4444 178.366V177.909H60.0012ZM62.5392 179.182V179.679H60.5605V179.182H62.5392ZM61.1373 178.267H61.7239V181.906C61.7239 182.072 61.7479 182.196 61.796 182.279C61.8457 182.36 61.9087 182.415 61.9849 182.443C62.0628 182.47 62.1448 182.483 62.231 182.483C62.2956 182.483 62.3487 182.48 62.3901 182.473C62.4315 182.465 62.4647 182.458 62.4895 182.453L62.6088 182.98C62.5691 182.995 62.5136 183.01 62.4423 183.025C62.371 183.041 62.2807 183.05 62.1713 183.05C62.0056 183.05 61.8432 183.014 61.6841 182.943C61.5267 182.872 61.3958 182.763 61.2914 182.617C61.1886 182.471 61.1373 182.287 61.1373 182.065V178.267ZM65.9771 180.703V183H65.3904V177.909H65.9771V179.778H66.0268C66.1163 179.581 66.2505 179.425 66.4295 179.309C66.6101 179.191 66.8504 179.132 67.1504 179.132C67.4106 179.132 67.6384 179.184 67.834 179.289C68.0295 179.391 68.1812 179.55 68.2889 179.763C68.3983 179.976 68.4529 180.246 68.4529 180.574V183H67.8663V180.614C67.8663 180.31 67.7876 180.076 67.6301 179.91C67.4744 179.743 67.2581 179.659 66.9814 179.659C66.7891 179.659 66.6168 179.7 66.4643 179.781C66.3135 179.862 66.1942 179.981 66.1064 180.136C66.0202 180.292 65.9771 180.481 65.9771 180.703ZM70.6498 183.089C70.4078 183.089 70.1882 183.044 69.991 182.953C69.7938 182.86 69.6372 182.727 69.5212 182.553C69.4052 182.377 69.3472 182.165 69.3472 181.916C69.3472 181.697 69.3903 181.52 69.4765 181.384C69.5626 181.247 69.6778 181.139 69.822 181.061C69.9662 180.983 70.1253 180.925 70.2993 180.887C70.4749 180.847 70.6514 180.816 70.8287 180.793C71.0608 180.763 71.2488 180.74 71.393 180.725C71.5389 180.709 71.6449 180.682 71.7112 180.643C71.7791 180.605 71.8131 180.539 71.8131 180.445V180.425C71.8131 180.179 71.746 179.989 71.6118 179.853C71.4792 179.717 71.2778 179.649 71.0077 179.649C70.7277 179.649 70.5081 179.71 70.349 179.833C70.1899 179.956 70.078 180.087 70.0134 180.226L69.4566 180.027C69.556 179.795 69.6886 179.614 69.8543 179.485C70.0217 179.354 70.204 179.263 70.4012 179.212C70.6001 179.159 70.7956 179.132 70.9878 179.132C71.1105 179.132 71.2513 179.147 71.4104 179.177C71.5712 179.205 71.7261 179.264 71.8753 179.353C72.0261 179.443 72.1512 179.578 72.2506 179.759C72.3501 179.939 72.3998 180.181 72.3998 180.484V183H71.8131V182.483H71.7833C71.7435 182.566 71.6772 182.654 71.5844 182.749C71.4916 182.843 71.3682 182.924 71.214 182.99C71.0599 183.056 70.8718 183.089 70.6498 183.089ZM70.7393 182.562C70.9713 182.562 71.1668 182.517 71.3259 182.426C71.4867 182.335 71.6076 182.217 71.6888 182.073C71.7717 181.929 71.8131 181.777 71.8131 181.618V181.081C71.7883 181.111 71.7336 181.138 71.6491 181.163C71.5662 181.186 71.4701 181.207 71.3607 181.225C71.253 181.242 71.1478 181.257 71.045 181.27C70.9439 181.281 70.8619 181.291 70.7989 181.3C70.6465 181.32 70.5039 181.352 70.3714 181.397C70.2404 181.44 70.1344 181.505 70.0532 181.593C69.9736 181.679 69.9339 181.797 69.9339 181.946C69.9339 182.15 70.0093 182.304 70.1601 182.408C70.3125 182.511 70.5056 182.562 70.7393 182.562ZM76.456 179.182L75.044 183H74.4474L73.0355 179.182H73.6719L74.7259 182.224H74.7656L75.8196 179.182H76.456ZM78.6944 183.08C78.3265 183.08 78.0092 182.998 77.7424 182.836C77.4772 182.672 77.2725 182.443 77.1284 182.15C76.9859 181.855 76.9146 181.512 76.9146 181.121C76.9146 180.73 76.9859 180.385 77.1284 180.087C77.2725 179.787 77.4731 179.553 77.7299 179.386C77.9885 179.217 78.2901 179.132 78.6348 179.132C78.8336 179.132 79.03 179.165 79.2239 179.232C79.4178 179.298 79.5943 179.406 79.7534 179.555C79.9125 179.702 80.0392 179.898 80.1337 180.141C80.2282 180.385 80.2754 180.685 80.2754 181.041V181.29H77.3322V180.783H79.6788C79.6788 180.567 79.6357 180.375 79.5495 180.206C79.465 180.037 79.344 179.904 79.1866 179.806C79.0308 179.708 78.8469 179.659 78.6348 179.659C78.4011 179.659 78.1989 179.717 78.0282 179.833C77.8592 179.947 77.7291 180.097 77.638 180.281C77.5468 180.464 77.5012 180.662 77.5012 180.872V181.21C77.5012 181.499 77.551 181.743 77.6504 181.944C77.7515 182.142 77.8915 182.294 78.0705 182.398C78.2495 182.501 78.4574 182.553 78.6944 182.553C78.8485 182.553 78.9877 182.531 79.112 182.488C79.238 182.443 79.3465 182.377 79.4377 182.289C79.5288 182.2 79.5993 182.089 79.649 181.956L80.2157 182.115C80.1561 182.307 80.0558 182.476 79.915 182.622C79.7741 182.766 79.6001 182.879 79.3929 182.96C79.1858 183.04 78.9529 183.08 78.6944 183.08ZM84.2601 183.089C84.0182 183.089 83.7986 183.044 83.6014 182.953C83.4042 182.86 83.2476 182.727 83.1316 182.553C83.0156 182.377 82.9576 182.165 82.9576 181.916C82.9576 181.697 83.0007 181.52 83.0868 181.384C83.173 181.247 83.2882 181.139 83.4324 181.061C83.5765 180.983 83.7356 180.925 83.9096 180.887C84.0853 180.847 84.2618 180.816 84.4391 180.793C84.6711 180.763 84.8592 180.74 85.0034 180.725C85.1492 180.709 85.2553 180.682 85.3216 180.643C85.3895 180.605 85.4235 180.539 85.4235 180.445V180.425C85.4235 180.179 85.3564 179.989 85.2221 179.853C85.0895 179.717 84.8882 179.649 84.6181 179.649C84.338 179.649 84.1184 179.71 83.9593 179.833C83.8002 179.956 83.6884 180.087 83.6238 180.226L83.0669 180.027C83.1664 179.795 83.2989 179.614 83.4647 179.485C83.632 179.354 83.8143 179.263 84.0115 179.212C84.2104 179.159 84.406 179.132 84.5982 179.132C84.7208 179.132 84.8617 179.147 85.0208 179.177C85.1815 179.205 85.3365 179.264 85.4856 179.353C85.6364 179.443 85.7615 179.578 85.861 179.759C85.9604 179.939 86.0101 180.181 86.0101 180.484V183H85.4235V182.483H85.3936C85.3539 182.566 85.2876 182.654 85.1948 182.749C85.102 182.843 84.9785 182.924 84.8244 182.99C84.6703 183.056 84.4822 183.089 84.2601 183.089ZM84.3496 182.562C84.5816 182.562 84.7772 182.517 84.9363 182.426C85.097 182.335 85.218 182.217 85.2992 182.073C85.382 181.929 85.4235 181.777 85.4235 181.618V181.081C85.3986 181.111 85.3439 181.138 85.2594 181.163C85.1766 181.186 85.0804 181.207 84.9711 181.225C84.8633 181.242 84.7581 181.257 84.6554 181.27C84.5543 181.281 84.4722 181.291 84.4093 181.3C84.2568 181.32 84.1143 181.352 83.9817 181.397C83.8508 181.44 83.7447 181.505 83.6635 181.593C83.584 181.679 83.5442 181.797 83.5442 181.946C83.5442 182.15 83.6196 182.304 83.7704 182.408C83.9229 182.511 84.1159 182.562 84.3496 182.562ZM87.6675 180.703V183H87.0809V179.182H87.6476V179.778H87.6974C87.7868 179.585 87.9227 179.429 88.105 179.311C88.2873 179.192 88.5226 179.132 88.811 179.132C89.0695 179.132 89.2957 179.185 89.4896 179.291C89.6835 179.396 89.8343 179.555 89.942 179.768C90.0497 179.981 90.1036 180.249 90.1036 180.574V183H89.517V180.614C89.517 180.314 89.4391 180.08 89.2833 179.913C89.1275 179.744 88.9137 179.659 88.642 179.659C88.4547 179.659 88.2873 179.7 88.1398 179.781C87.994 179.862 87.8788 179.981 87.7943 180.136C87.7098 180.292 87.6675 180.481 87.6675 180.703ZM91.4167 184.432C91.3173 184.432 91.2286 184.424 91.1507 184.407C91.0729 184.392 91.019 184.377 90.9892 184.362L91.1383 183.845C91.2808 183.882 91.4068 183.895 91.5162 183.885C91.6255 183.875 91.7225 183.826 91.807 183.738C91.8932 183.652 91.9719 183.512 92.0431 183.318L92.1525 183.02L90.7406 179.182H91.377L92.4309 182.224H92.4707L93.5247 179.182H94.161L92.5403 183.557C92.4674 183.754 92.3771 183.917 92.2694 184.047C92.1616 184.177 92.0365 184.274 91.894 184.337C91.7531 184.4 91.594 184.432 91.4167 184.432ZM98.0277 183.089C97.7857 183.089 97.5662 183.044 97.369 182.953C97.1718 182.86 97.0152 182.727 96.8991 182.553C96.7831 182.377 96.7251 182.165 96.7251 181.916C96.7251 181.697 96.7682 181.52 96.8544 181.384C96.9406 181.247 97.0558 181.139 97.1999 181.061C97.3441 180.983 97.5032 180.925 97.6772 180.887C97.8529 180.847 98.0294 180.816 98.2067 180.793C98.4387 180.763 98.6268 180.74 98.771 180.725C98.9168 180.709 99.0228 180.682 99.0891 180.643C99.1571 180.605 99.1911 180.539 99.1911 180.445V180.425C99.1911 180.179 99.1239 179.989 98.9897 179.853C98.8571 179.717 98.6558 179.649 98.3857 179.649C98.1056 179.649 97.886 179.71 97.7269 179.833C97.5678 179.956 97.456 180.087 97.3913 180.226L96.8345 180.027C96.9339 179.795 97.0665 179.614 97.2322 179.485C97.3996 179.354 97.5819 179.263 97.7791 179.212C97.978 179.159 98.1735 179.132 98.3658 179.132C98.4884 179.132 98.6293 179.147 98.7884 179.177C98.9491 179.205 99.104 179.264 99.2532 179.353C99.404 179.443 99.5291 179.578 99.6286 179.759C99.728 179.939 99.7777 180.181 99.7777 180.484V183H99.1911V182.483H99.1612C99.1214 182.566 99.0552 182.654 98.9624 182.749C98.8696 182.843 98.7461 182.924 98.592 182.99C98.4379 183.056 98.2498 183.089 98.0277 183.089ZM98.1172 182.562C98.3492 182.562 98.5447 182.517 98.7038 182.426C98.8646 182.335 98.9856 182.217 99.0668 182.073C99.1496 181.929 99.1911 181.777 99.1911 181.618V181.081C99.1662 181.111 99.1115 181.138 99.027 181.163C98.9441 181.186 98.848 181.207 98.7386 181.225C98.6309 181.242 98.5257 181.257 98.4229 181.27C98.3219 181.281 98.2398 181.291 98.1768 181.3C98.0244 181.32 97.8819 181.352 97.7493 181.397C97.6184 181.44 97.5123 181.505 97.4311 181.593C97.3516 181.679 97.3118 181.797 97.3118 181.946C97.3118 182.15 97.3872 182.304 97.538 182.408C97.6905 182.511 97.8835 182.562 98.1172 182.562ZM100.848 183V179.182H101.415V179.759H101.455C101.525 179.57 101.651 179.416 101.833 179.299C102.015 179.181 102.221 179.122 102.449 179.122C102.492 179.122 102.546 179.123 102.611 179.125C102.676 179.126 102.724 179.129 102.758 179.132V179.729C102.738 179.724 102.692 179.716 102.621 179.706C102.551 179.695 102.477 179.689 102.4 179.689C102.214 179.689 102.048 179.728 101.902 179.806C101.758 179.882 101.644 179.988 101.559 180.124C101.477 180.258 101.435 180.411 101.435 180.584V183H100.848ZM104.888 183.08C104.53 183.08 104.222 182.995 103.963 182.826C103.705 182.657 103.506 182.424 103.367 182.127C103.227 181.831 103.158 181.492 103.158 181.111C103.158 180.723 103.229 180.381 103.372 180.084C103.516 179.786 103.716 179.553 103.973 179.386C104.232 179.217 104.533 179.132 104.878 179.132C105.146 179.132 105.388 179.182 105.604 179.281C105.819 179.381 105.996 179.52 106.133 179.699C106.271 179.878 106.356 180.087 106.389 180.325H105.803C105.758 180.151 105.658 179.997 105.504 179.863C105.352 179.727 105.146 179.659 104.888 179.659C104.659 179.659 104.459 179.719 104.286 179.838C104.116 179.956 103.982 180.122 103.886 180.338C103.792 180.551 103.744 180.803 103.744 181.091C103.744 181.386 103.791 181.643 103.884 181.862C103.978 182.08 104.111 182.25 104.281 182.371C104.454 182.492 104.656 182.553 104.888 182.553C105.04 182.553 105.179 182.526 105.303 182.473C105.427 182.42 105.533 182.344 105.619 182.244C105.705 182.145 105.766 182.026 105.803 181.886H106.389C106.356 182.112 106.274 182.315 106.143 182.495C106.014 182.674 105.842 182.817 105.629 182.923C105.417 183.027 105.17 183.08 104.888 183.08ZM107.834 180.703V183H107.247V177.909H107.834V179.778H107.883C107.973 179.581 108.107 179.425 108.286 179.309C108.467 179.191 108.707 179.132 109.007 179.132C109.267 179.132 109.495 179.184 109.69 179.289C109.886 179.391 110.038 179.55 110.145 179.763C110.255 179.976 110.309 180.246 110.309 180.574V183H109.723V180.614C109.723 180.31 109.644 180.076 109.487 179.91C109.331 179.743 109.115 179.659 108.838 179.659C108.646 179.659 108.473 179.7 108.321 179.781C108.17 179.862 108.051 179.981 107.963 180.136C107.877 180.292 107.834 180.481 107.834 180.703ZM111.383 183V179.182H111.969V183H111.383ZM111.681 178.545C111.567 178.545 111.468 178.507 111.385 178.429C111.304 178.351 111.263 178.257 111.263 178.148C111.263 178.038 111.304 177.945 111.385 177.867C111.468 177.789 111.567 177.75 111.681 177.75C111.795 177.75 111.893 177.789 111.974 177.867C112.057 177.945 112.099 178.038 112.099 178.148C112.099 178.257 112.057 178.351 111.974 178.429C111.893 178.507 111.795 178.545 111.681 178.545ZM116.166 179.182L114.754 183H114.157L112.745 179.182H113.382L114.436 182.224H114.476L115.53 179.182H116.166ZM118.404 183.08C118.036 183.08 117.719 182.998 117.452 182.836C117.187 182.672 116.983 182.443 116.838 182.15C116.696 181.855 116.625 181.512 116.625 181.121C116.625 180.73 116.696 180.385 116.838 180.087C116.983 179.787 117.183 179.553 117.44 179.386C117.698 179.217 118 179.132 118.345 179.132C118.544 179.132 118.74 179.165 118.934 179.232C119.128 179.298 119.304 179.406 119.463 179.555C119.622 179.702 119.749 179.898 119.844 180.141C119.938 180.385 119.985 180.685 119.985 181.041V181.29H117.042V180.783H119.389C119.389 180.567 119.346 180.375 119.259 180.206C119.175 180.037 119.054 179.904 118.897 179.806C118.741 179.708 118.557 179.659 118.345 179.659C118.111 179.659 117.909 179.717 117.738 179.833C117.569 179.947 117.439 180.097 117.348 180.281C117.257 180.464 117.211 180.662 117.211 180.872V181.21C117.211 181.499 117.261 181.743 117.36 181.944C117.461 182.142 117.601 182.294 117.78 182.398C117.959 182.501 118.167 182.553 118.404 182.553C118.559 182.553 118.698 182.531 118.822 182.488C118.948 182.443 119.056 182.377 119.148 182.289C119.239 182.2 119.309 182.089 119.359 181.956L119.926 182.115C119.866 182.307 119.766 182.476 119.625 182.622C119.484 182.766 119.31 182.879 119.103 182.96C118.896 183.04 118.663 183.08 118.404 183.08ZM123.582 180.037L123.055 180.186C123.022 180.098 122.973 180.013 122.909 179.93C122.846 179.846 122.759 179.776 122.65 179.721C122.541 179.667 122.401 179.639 122.23 179.639C121.996 179.639 121.802 179.693 121.646 179.801C121.492 179.907 121.415 180.042 121.415 180.206C121.415 180.352 121.468 180.467 121.574 180.551C121.68 180.636 121.846 180.706 122.071 180.763L122.638 180.902C122.979 180.985 123.233 181.112 123.401 181.282C123.568 181.451 123.652 181.669 123.652 181.936C123.652 182.155 123.589 182.35 123.463 182.523C123.339 182.695 123.165 182.831 122.941 182.93C122.717 183.03 122.457 183.08 122.16 183.08C121.771 183.08 121.449 182.995 121.193 182.826C120.938 182.657 120.777 182.41 120.709 182.085L121.266 181.946C121.319 182.152 121.419 182.306 121.566 182.408C121.715 182.511 121.91 182.562 122.15 182.562C122.424 182.562 122.641 182.504 122.802 182.388C122.964 182.271 123.045 182.13 123.045 181.966C123.045 181.833 122.999 181.722 122.906 181.633C122.813 181.542 122.671 181.474 122.479 181.429L121.842 181.28C121.493 181.197 121.236 181.069 121.072 180.895C120.909 180.719 120.828 180.499 120.828 180.236C120.828 180.02 120.889 179.83 121.009 179.664C121.132 179.498 121.299 179.368 121.509 179.274C121.721 179.179 121.962 179.132 122.23 179.132C122.608 179.132 122.905 179.215 123.12 179.381C123.337 179.546 123.491 179.765 123.582 180.037ZM126.882 184.432C126.782 184.432 126.693 184.424 126.616 184.407C126.538 184.392 126.484 184.377 126.454 184.362L126.603 183.845C126.746 183.882 126.872 183.895 126.981 183.885C127.09 183.875 127.187 183.826 127.272 183.738C127.358 183.652 127.437 183.512 127.508 183.318L127.617 183.02L126.205 179.182H126.842L127.896 182.224H127.936L128.99 179.182H129.626L128.005 183.557C127.932 183.754 127.842 183.917 127.734 184.047C127.626 184.177 127.501 184.274 127.359 184.337C127.218 184.4 127.059 184.432 126.882 184.432ZM131.864 183.08C131.496 183.08 131.179 182.998 130.912 182.836C130.647 182.672 130.442 182.443 130.298 182.15C130.156 181.855 130.085 181.512 130.085 181.121C130.085 180.73 130.156 180.385 130.298 180.087C130.442 179.787 130.643 179.553 130.9 179.386C131.158 179.217 131.46 179.132 131.805 179.132C132.004 179.132 132.2 179.165 132.394 179.232C132.588 179.298 132.764 179.406 132.923 179.555C133.082 179.702 133.209 179.898 133.304 180.141C133.398 180.385 133.445 180.685 133.445 181.041V181.29H130.502V180.783H132.849C132.849 180.567 132.806 180.375 132.719 180.206C132.635 180.037 132.514 179.904 132.357 179.806C132.201 179.708 132.017 179.659 131.805 179.659C131.571 179.659 131.369 179.717 131.198 179.833C131.029 179.947 130.899 180.097 130.808 180.281C130.717 180.464 130.671 180.662 130.671 180.872V181.21C130.671 181.499 130.721 181.743 130.82 181.944C130.921 182.142 131.061 182.294 131.24 182.398C131.419 182.501 131.627 182.553 131.864 182.553C132.018 182.553 132.158 182.531 132.282 182.488C132.408 182.443 132.516 182.377 132.608 182.289C132.699 182.2 132.769 182.089 132.819 181.956L133.386 182.115C133.326 182.307 133.226 182.476 133.085 182.622C132.944 182.766 132.77 182.879 132.563 182.96C132.356 183.04 132.123 183.08 131.864 183.08ZM135.998 179.182V179.679H134.02V179.182H135.998ZM134.596 178.267H135.183V181.906C135.183 182.072 135.207 182.196 135.255 182.279C135.305 182.36 135.368 182.415 135.444 182.443C135.522 182.47 135.604 182.483 135.69 182.483C135.755 182.483 135.808 182.48 135.849 182.473C135.891 182.465 135.924 182.458 135.949 182.453L136.068 182.98C136.028 182.995 135.973 183.01 135.901 183.025C135.83 183.041 135.74 183.05 135.63 183.05C135.465 183.05 135.302 183.014 135.143 182.943C134.986 182.872 134.855 182.763 134.75 182.617C134.648 182.471 134.596 182.287 134.596 182.065V178.267ZM137.656 177.909L137.607 181.568H137.03L136.98 177.909H137.656ZM137.318 183.04C137.196 183.04 137.09 182.996 137.002 182.908C136.915 182.82 136.871 182.715 136.871 182.592C136.871 182.47 136.915 182.364 137.002 182.277C137.09 182.189 137.196 182.145 137.318 182.145C137.441 182.145 137.546 182.189 137.634 182.277C137.722 182.364 137.766 182.47 137.766 182.592C137.766 182.674 137.745 182.748 137.703 182.816C137.664 182.884 137.61 182.939 137.542 182.98C137.476 183.02 137.401 183.04 137.318 183.04Z" fill="#A0A0A0"/>
<path d="M64.9 163.77V171H64.21C64.1033 171 64.0133 170.983 63.94 170.95C63.87 170.913 63.8017 170.853 63.735 170.77L59.96 165.95C59.98 166.17 59.99 166.373 59.99 166.56V171H58.805V163.77H59.51C59.5667 163.77 59.615 163.773 59.655 163.78C59.6983 163.783 59.735 163.793 59.765 163.81C59.7983 163.823 59.83 163.845 59.86 163.875C59.89 163.902 59.9233 163.938 59.96 163.985L63.75 168.825C63.74 168.708 63.7317 168.593 63.725 168.48C63.7183 168.367 63.715 168.262 63.715 168.165V163.77H64.9ZM68.4288 165.79C68.8088 165.79 69.1538 165.852 69.4638 165.975C69.7772 166.098 70.0438 166.273 70.2638 166.5C70.4872 166.727 70.6588 167.003 70.7788 167.33C70.8988 167.657 70.9588 168.022 70.9588 168.425C70.9588 168.832 70.8988 169.198 70.7788 169.525C70.6588 169.852 70.4872 170.13 70.2638 170.36C70.0438 170.59 69.7772 170.767 69.4638 170.89C69.1538 171.013 68.8088 171.075 68.4288 171.075C68.0455 171.075 67.6972 171.013 67.3838 170.89C67.0705 170.767 66.8022 170.59 66.5788 170.36C66.3588 170.13 66.1872 169.852 66.0638 169.525C65.9438 169.198 65.8838 168.832 65.8838 168.425C65.8838 168.022 65.9438 167.657 66.0638 167.33C66.1872 167.003 66.3588 166.727 66.5788 166.5C66.8022 166.273 67.0705 166.098 67.3838 165.975C67.6972 165.852 68.0455 165.79 68.4288 165.79ZM68.4288 170.125C68.8555 170.125 69.1705 169.982 69.3738 169.695C69.5805 169.408 69.6838 168.988 69.6838 168.435C69.6838 167.882 69.5805 167.46 69.3738 167.17C69.1705 166.88 68.8555 166.735 68.4288 166.735C67.9955 166.735 67.6738 166.882 67.4638 167.175C67.2572 167.465 67.1538 167.885 67.1538 168.435C67.1538 168.985 67.2572 169.405 67.4638 169.695C67.6738 169.982 67.9955 170.125 68.4288 170.125ZM78.0156 168.27L77.1356 165.865C77.0923 165.758 77.0473 165.632 77.0006 165.485C76.954 165.338 76.9073 165.18 76.8606 165.01C76.8173 165.18 76.7723 165.34 76.7256 165.49C76.679 165.637 76.634 165.765 76.5906 165.875L75.7156 168.27H78.0156ZM80.3906 171H79.3506C79.234 171 79.139 170.972 79.0656 170.915C78.9923 170.855 78.9373 170.782 78.9006 170.695L78.3606 169.22H75.3656L74.8256 170.695C74.799 170.772 74.7473 170.842 74.6706 170.905C74.594 170.968 74.499 171 74.3856 171H73.3356L76.1806 163.77H77.5506L80.3906 171ZM82.0992 166.76C82.2592 166.453 82.4492 166.213 82.6692 166.04C82.8892 165.863 83.1492 165.775 83.4492 165.775C83.6859 165.775 83.8759 165.827 84.0192 165.93L83.9392 166.855C83.9226 166.915 83.8976 166.958 83.8642 166.985C83.8342 167.008 83.7926 167.02 83.7392 167.02C83.6892 167.02 83.6142 167.012 83.5142 166.995C83.4176 166.978 83.3226 166.97 83.2292 166.97C83.0926 166.97 82.9709 166.99 82.8642 167.03C82.7576 167.07 82.6609 167.128 82.5742 167.205C82.4909 167.278 82.4159 167.368 82.3492 167.475C82.2859 167.582 82.2259 167.703 82.1692 167.84V171H80.9342V165.87H81.6592C81.7859 165.87 81.8742 165.893 81.9242 165.94C81.9742 165.983 82.0076 166.063 82.0242 166.18L82.0992 166.76ZM88.1932 166.955C88.1565 167.002 88.1199 167.038 88.0832 167.065C88.0499 167.092 87.9999 167.105 87.9332 167.105C87.8699 167.105 87.8082 167.087 87.7482 167.05C87.6882 167.01 87.6165 166.967 87.5332 166.92C87.4499 166.87 87.3499 166.827 87.2332 166.79C87.1199 166.75 86.9782 166.73 86.8082 166.73C86.5915 166.73 86.4015 166.77 86.2382 166.85C86.0749 166.927 85.9382 167.038 85.8282 167.185C85.7215 167.332 85.6415 167.51 85.5882 167.72C85.5349 167.927 85.5082 168.162 85.5082 168.425C85.5082 168.698 85.5365 168.942 85.5932 169.155C85.6532 169.368 85.7382 169.548 85.8482 169.695C85.9582 169.838 86.0915 169.948 86.2482 170.025C86.4049 170.098 86.5815 170.135 86.7782 170.135C86.9749 170.135 87.1332 170.112 87.2532 170.065C87.3765 170.015 87.4799 169.962 87.5632 169.905C87.6465 169.845 87.7182 169.792 87.7782 169.745C87.8415 169.695 87.9115 169.67 87.9882 169.67C88.0882 169.67 88.1632 169.708 88.2132 169.785L88.5682 170.235C88.4315 170.395 88.2832 170.53 88.1232 170.64C87.9632 170.747 87.7965 170.833 87.6232 170.9C87.4532 170.963 87.2765 171.008 87.0932 171.035C86.9132 171.062 86.7332 171.075 86.5532 171.075C86.2365 171.075 85.9382 171.017 85.6582 170.9C85.3782 170.78 85.1332 170.607 84.9232 170.38C84.7132 170.153 84.5465 169.877 84.4232 169.55C84.3032 169.22 84.2432 168.845 84.2432 168.425C84.2432 168.048 84.2965 167.7 84.4032 167.38C84.5132 167.057 84.6732 166.778 84.8832 166.545C85.0932 166.308 85.3532 166.123 85.6632 165.99C85.9732 165.857 86.3299 165.79 86.7332 165.79C87.1165 165.79 87.4515 165.852 87.7382 165.975C88.0282 166.098 88.2882 166.275 88.5182 166.505L88.1932 166.955ZM90.5774 166.42C90.7774 166.233 90.9974 166.082 91.2374 165.965C91.4774 165.848 91.7591 165.79 92.0824 165.79C92.3624 165.79 92.6108 165.838 92.8274 165.935C93.0441 166.028 93.2241 166.162 93.3674 166.335C93.5141 166.505 93.6241 166.71 93.6974 166.95C93.7741 167.187 93.8124 167.448 93.8124 167.735V171H92.5774V167.735C92.5774 167.422 92.5058 167.18 92.3624 167.01C92.2191 166.837 92.0008 166.75 91.7074 166.75C91.4941 166.75 91.2941 166.798 91.1074 166.895C90.9208 166.992 90.7441 167.123 90.5774 167.29V171H89.3424V163.57H90.5774V166.42ZM96.267 165.87V171H95.027V165.87H96.267ZM96.437 164.375C96.437 164.482 96.4153 164.582 96.372 164.675C96.3286 164.768 96.2703 164.85 96.197 164.92C96.127 164.99 96.0436 165.047 95.947 165.09C95.8503 165.13 95.747 165.15 95.637 165.15C95.5303 165.15 95.4286 165.13 95.332 165.09C95.2386 165.047 95.157 164.99 95.087 164.92C95.017 164.85 94.9603 164.768 94.917 164.675C94.877 164.582 94.857 164.482 94.857 164.375C94.857 164.265 94.877 164.162 94.917 164.065C94.9603 163.968 95.017 163.885 95.087 163.815C95.157 163.745 95.2386 163.69 95.332 163.65C95.4286 163.607 95.5303 163.585 95.637 163.585C95.747 163.585 95.8503 163.607 95.947 163.65C96.0436 163.69 96.127 163.745 96.197 163.815C96.2703 163.885 96.3286 163.968 96.372 164.065C96.4153 164.162 96.437 164.265 96.437 164.375ZM102.151 165.87L100.116 171H98.996L96.961 165.87H97.981C98.0743 165.87 98.151 165.892 98.211 165.935C98.2743 165.978 98.316 166.033 98.336 166.1L99.326 168.84C99.3793 169 99.426 169.157 99.466 169.31C99.506 169.463 99.541 169.617 99.571 169.77C99.6043 169.617 99.641 169.463 99.681 169.31C99.721 169.157 99.7693 169 99.826 168.84L100.836 166.1C100.859 166.033 100.901 165.978 100.961 165.935C101.021 165.892 101.093 165.87 101.176 165.87H102.151ZM105.958 167.845C105.958 167.685 105.935 167.535 105.888 167.395C105.845 167.252 105.778 167.127 105.688 167.02C105.598 166.913 105.483 166.83 105.343 166.77C105.206 166.707 105.046 166.675 104.863 166.675C104.506 166.675 104.225 166.777 104.018 166.98C103.815 167.183 103.685 167.472 103.628 167.845H105.958ZM103.603 168.59C103.623 168.853 103.67 169.082 103.743 169.275C103.816 169.465 103.913 169.623 104.033 169.75C104.153 169.873 104.295 169.967 104.458 170.03C104.625 170.09 104.808 170.12 105.008 170.12C105.208 170.12 105.38 170.097 105.523 170.05C105.67 170.003 105.796 169.952 105.903 169.895C106.013 169.838 106.108 169.787 106.188 169.74C106.271 169.693 106.351 169.67 106.428 169.67C106.531 169.67 106.608 169.708 106.658 169.785L107.013 170.235C106.876 170.395 106.723 170.53 106.553 170.64C106.383 170.747 106.205 170.833 106.018 170.9C105.835 170.963 105.646 171.008 105.453 171.035C105.263 171.062 105.078 171.075 104.898 171.075C104.541 171.075 104.21 171.017 103.903 170.9C103.596 170.78 103.33 170.605 103.103 170.375C102.876 170.142 102.698 169.855 102.568 169.515C102.438 169.172 102.373 168.775 102.373 168.325C102.373 167.975 102.43 167.647 102.543 167.34C102.656 167.03 102.818 166.762 103.028 166.535C103.241 166.305 103.5 166.123 103.803 165.99C104.11 165.857 104.455 165.79 104.838 165.79C105.161 165.79 105.46 165.842 105.733 165.945C106.006 166.048 106.241 166.2 106.438 166.4C106.635 166.597 106.788 166.84 106.898 167.13C107.011 167.417 107.068 167.745 107.068 168.115C107.068 168.302 107.048 168.428 107.008 168.495C106.968 168.558 106.891 168.59 106.778 168.59H103.603ZM111.125 166.87C111.091 166.923 111.056 166.962 111.02 166.985C110.983 167.005 110.936 167.015 110.88 167.015C110.82 167.015 110.755 166.998 110.685 166.965C110.618 166.932 110.54 166.895 110.45 166.855C110.36 166.812 110.256 166.773 110.14 166.74C110.026 166.707 109.891 166.69 109.735 166.69C109.491 166.69 109.3 166.742 109.16 166.845C109.023 166.948 108.955 167.083 108.955 167.25C108.955 167.36 108.99 167.453 109.06 167.53C109.133 167.603 109.228 167.668 109.345 167.725C109.465 167.782 109.6 167.833 109.75 167.88C109.9 167.923 110.051 167.972 110.205 168.025C110.361 168.078 110.515 168.14 110.665 168.21C110.815 168.277 110.948 168.363 111.065 168.47C111.185 168.573 111.28 168.698 111.35 168.845C111.423 168.992 111.46 169.168 111.46 169.375C111.46 169.622 111.415 169.85 111.325 170.06C111.238 170.267 111.108 170.447 110.935 170.6C110.761 170.75 110.546 170.868 110.29 170.955C110.036 171.038 109.743 171.08 109.41 171.08C109.233 171.08 109.06 171.063 108.89 171.03C108.723 171 108.561 170.957 108.405 170.9C108.251 170.843 108.108 170.777 107.975 170.7C107.845 170.623 107.73 170.54 107.63 170.45L107.915 169.98C107.951 169.923 107.995 169.88 108.045 169.85C108.095 169.82 108.158 169.805 108.235 169.805C108.311 169.805 108.383 169.827 108.45 169.87C108.52 169.913 108.6 169.96 108.69 170.01C108.78 170.06 108.885 170.107 109.005 170.15C109.128 170.193 109.283 170.215 109.47 170.215C109.616 170.215 109.741 170.198 109.845 170.165C109.951 170.128 110.038 170.082 110.105 170.025C110.175 169.968 110.225 169.903 110.255 169.83C110.288 169.753 110.305 169.675 110.305 169.595C110.305 169.475 110.268 169.377 110.195 169.3C110.125 169.223 110.03 169.157 109.91 169.1C109.793 169.043 109.658 168.993 109.505 168.95C109.355 168.903 109.2 168.853 109.04 168.8C108.883 168.747 108.728 168.685 108.575 168.615C108.425 168.542 108.29 168.45 108.17 168.34C108.053 168.23 107.958 168.095 107.885 167.935C107.815 167.775 107.78 167.582 107.78 167.355C107.78 167.145 107.821 166.945 107.905 166.755C107.988 166.565 108.11 166.4 108.27 166.26C108.433 166.117 108.635 166.003 108.875 165.92C109.118 165.833 109.398 165.79 109.715 165.79C110.068 165.79 110.39 165.848 110.68 165.965C110.97 166.082 111.211 166.235 111.405 166.425L111.125 166.87Z" fill="#939090"/>
<path d="M84.65 144.56C104.891 144.56 121.3 143.539 121.3 142.28C121.3 141.021 104.891 140 84.65 140C64.4088 140 48 141.021 48 142.28C48 143.539 64.4088 144.56 84.65 144.56Z" fill="#F2F2F2"/>
</svg>
