<svg width="170" height="215" viewBox="0 0 170 215" fill="none" xmlns="http://www.w3.org/2000/svg">
<path d="M169.4 0H0V214.43H169.4V0Z" fill="#363636"/>
<path d="M105.318 64.8C96.948 64.8 88.458 64.47 80.498 62.25C72.538 60.03 65.558 55.88 59.128 51.02C54.948 47.85 51.128 45.34 45.708 45.72C40.3952 46.0003 35.3141 47.985 31.218 51.38C24.308 57.38 25.358 68.61 28.118 76.48C32.268 88.33 44.908 96.56 55.688 101.93C68.098 108.13 81.688 111.73 95.398 113.8C107.398 115.62 122.768 116.94 133.148 109.12C142.688 101.93 145.308 85.52 142.968 74.43C142.376 71.1668 140.617 68.2306 138.018 66.17C131.328 61.28 121.328 64.55 113.808 64.71C111.008 64.72 108.168 64.79 105.318 64.8Z" fill="#727272"/>
<path d="M129.008 109.21V113.5" stroke="#BABABA" stroke-linecap="round" stroke-linejoin="round"/>
<path d="M126.858 111.35H131.148" stroke="#BABABA" stroke-linecap="round" stroke-linejoin="round"/>
<path d="M54.158 50.68V54.98" stroke="#BABABA" stroke-linecap="round" stroke-linejoin="round"/>
<path d="M52.0181 52.83H56.3081" stroke="#BABABA" stroke-linecap="round" stroke-linejoin="round"/>
<path d="M126.148 51.07C126.689 51.07 127.128 50.6312 127.128 50.09C127.128 49.5487 126.689 49.11 126.148 49.11C125.607 49.11 125.168 49.5487 125.168 50.09C125.168 50.6312 125.607 51.07 126.148 51.07Z" fill="#CFCFCF"/>
<path d="M57.4981 82.4C58.0393 82.4 58.4781 81.9612 58.4781 81.42C58.4781 80.8788 58.0393 80.44 57.4981 80.44C56.9568 80.44 56.5181 80.8788 56.5181 81.42C56.5181 81.9612 56.9568 82.4 57.4981 82.4Z" fill="#CFCFCF"/>
<path d="M105.328 110.01L87.538 99.33C86.9331 98.9699 86.2421 98.7798 85.538 98.7798C84.834 98.7798 84.143 98.9699 83.538 99.33L66.158 109.93C65.5668 110.29 64.8902 110.487 64.1978 110.499C63.5054 110.512 62.8223 110.34 62.2185 110C61.6147 109.661 61.112 109.168 60.7622 108.57C60.4124 107.972 60.228 107.292 60.228 106.6V42.9C60.228 41.8657 60.6389 40.8737 61.3703 40.1423C62.1017 39.4109 63.0937 39 64.128 39H107.378C108.412 39.0026 109.402 39.4144 110.133 40.1452C110.864 40.876 111.275 41.8665 111.278 42.9V106.66C111.284 107.357 111.103 108.043 110.753 108.647C110.404 109.25 109.899 109.749 109.292 110.091C108.684 110.433 107.996 110.606 107.299 110.592C106.602 110.577 105.921 110.377 105.328 110.01Z" fill="#D2D2D2"/>
<path d="M112.918 117.79L94.3481 106.64C93.7115 106.255 92.9819 106.052 92.2381 106.052C91.4943 106.052 90.7647 106.255 90.1281 106.64L71.9881 117.72C71.3699 118.096 70.6628 118.301 69.9393 118.313C69.2159 118.326 68.5021 118.146 67.8711 117.792C67.2401 117.438 66.7147 116.922 66.3486 116.298C65.9826 115.674 65.7891 114.964 65.7881 114.24V47.73C65.7907 46.6497 66.2218 45.6145 66.9866 44.8515C67.7515 44.0885 68.7877 43.66 69.8681 43.66H115.018C116.098 43.66 117.133 44.0888 117.896 44.8521C118.659 45.6154 119.088 46.6506 119.088 47.73V114.3C119.089 115.021 118.898 115.73 118.535 116.353C118.172 116.976 117.65 117.491 117.022 117.846C116.394 118.201 115.683 118.383 114.962 118.373C114.241 118.363 113.536 118.162 112.918 117.79Z" fill="white" stroke="#BABABA" stroke-linecap="round" stroke-linejoin="round"/>
<path d="M92.438 90.19C102.771 90.19 111.148 81.8132 111.148 71.48C111.148 61.1467 102.771 52.77 92.438 52.77C82.1048 52.77 73.728 61.1467 73.728 71.48C73.728 81.8132 82.1048 90.19 92.438 90.19Z" fill="#D2D2D2"/>
<path d="M93.3979 58.29L96.8379 65.29L104.518 66.41C104.714 66.4399 104.898 66.5238 105.05 66.6523C105.201 66.7809 105.314 66.949 105.375 67.1378C105.436 67.3267 105.443 67.5289 105.396 67.7218C105.349 67.9147 105.249 68.0906 105.108 68.23L99.5479 73.65L100.858 81.3C100.892 81.4966 100.87 81.6987 100.795 81.8836C100.72 82.0685 100.595 82.2288 100.434 82.3463C100.273 82.4638 100.082 82.5339 99.8828 82.5487C99.6839 82.5635 99.4847 82.5224 99.3079 82.43L92.4379 78.77L85.5679 82.39C85.3911 82.4824 85.192 82.5235 84.993 82.5087C84.7941 82.4939 84.6033 82.4238 84.4421 82.3063C84.2809 82.1888 84.1557 82.0285 84.0808 81.8436C84.0058 81.6587 83.9841 81.4566 84.0179 81.26L85.3379 73.61L79.7779 68.17C79.6327 68.0323 79.5294 67.8562 79.48 67.6623C79.4307 67.4683 79.4372 67.2643 79.4989 67.0739C79.5606 66.8835 79.675 66.7145 79.8288 66.5864C79.9826 66.4583 80.1695 66.3763 80.3679 66.35L88.0479 65.23L91.4879 58.23C91.5826 58.056 91.7238 57.9116 91.8956 57.8131C92.0675 57.7146 92.2634 57.6657 92.4614 57.6719C92.6594 57.6781 92.8518 57.7392 93.0172 57.8483C93.1825 57.9575 93.3143 58.1104 93.3979 58.29Z" fill="white" stroke="#BABABA" stroke-linecap="round" stroke-linejoin="round"/>
<path d="M23.179 178.909H23.8849L25.2969 181.286H25.3565L26.7685 178.909H27.4744L25.6349 181.902V184H25.0185V181.902L23.179 178.909ZM29.2033 184.08C28.8586 184.08 28.5562 183.998 28.296 183.833C28.0375 183.669 27.8353 183.44 27.6895 183.145C27.5453 182.85 27.4732 182.505 27.4732 182.111C27.4732 181.713 27.5453 181.366 27.6895 181.069C27.8353 180.773 28.0375 180.542 28.296 180.378C28.5562 180.214 28.8586 180.132 29.2033 180.132C29.548 180.132 29.8496 180.214 30.1081 180.378C30.3683 180.542 30.5705 180.773 30.7147 181.069C30.8605 181.366 30.9334 181.713 30.9334 182.111C30.9334 182.505 30.8605 182.85 30.7147 183.145C30.5705 183.44 30.3683 183.669 30.1081 183.833C29.8496 183.998 29.548 184.08 29.2033 184.08ZM29.2033 183.553C29.4651 183.553 29.6806 183.485 29.8496 183.351C30.0186 183.217 30.1438 183.04 30.225 182.822C30.3062 182.603 30.3468 182.366 30.3468 182.111C30.3468 181.856 30.3062 181.618 30.225 181.397C30.1438 181.177 30.0186 180.999 29.8496 180.863C29.6806 180.727 29.4651 180.659 29.2033 180.659C28.9415 180.659 28.726 180.727 28.557 180.863C28.388 180.999 28.2628 181.177 28.1816 181.397C28.1004 181.618 28.0598 181.856 28.0598 182.111C28.0598 182.366 28.1004 182.603 28.1816 182.822C28.2628 183.04 28.388 183.217 28.557 183.351C28.726 183.485 28.9415 183.553 29.2033 183.553ZM34.2352 182.439V180.182H34.8218V184H34.2352V183.354H34.1954C34.1059 183.548 33.9667 183.712 33.7778 183.848C33.5889 183.983 33.3502 184.05 33.0619 184.05C32.8232 184.05 32.6111 183.998 32.4255 183.893C32.2399 183.787 32.0941 183.628 31.988 183.416C31.882 183.202 31.8289 182.933 31.8289 182.608V180.182H32.4156V182.568C32.4156 182.847 32.4935 183.069 32.6492 183.234C32.8067 183.4 33.0072 183.483 33.2508 183.483C33.3966 183.483 33.545 183.446 33.6958 183.371C33.8482 183.297 33.9758 183.182 34.0786 183.028C34.183 182.874 34.2352 182.678 34.2352 182.439ZM38.4517 181.703V184H37.8651V178.909H38.4517V180.778H38.5014C38.5909 180.581 38.7251 180.425 38.9041 180.309C39.0848 180.191 39.325 180.132 39.625 180.132C39.8852 180.132 40.113 180.184 40.3086 180.289C40.5041 180.391 40.6558 180.55 40.7635 180.763C40.8729 180.976 40.9276 181.246 40.9276 181.574V184H40.3409V181.614C40.3409 181.31 40.2622 181.076 40.1048 180.91C39.949 180.743 39.7327 180.659 39.456 180.659C39.2637 180.659 39.0914 180.7 38.9389 180.781C38.7881 180.862 38.6688 180.981 38.581 181.136C38.4948 181.292 38.4517 181.481 38.4517 181.703ZM43.1244 184.089C42.8824 184.089 42.6628 184.044 42.4656 183.953C42.2684 183.86 42.1118 183.727 41.9958 183.553C41.8798 183.377 41.8218 183.165 41.8218 182.916C41.8218 182.697 41.8649 182.52 41.9511 182.384C42.0373 182.247 42.1524 182.139 42.2966 182.061C42.4408 181.983 42.5999 181.925 42.7739 181.887C42.9495 181.847 43.126 181.816 43.3034 181.793C43.5354 181.763 43.7235 181.74 43.8676 181.725C44.0135 181.709 44.1195 181.682 44.1858 181.643C44.2538 181.605 44.2877 181.539 44.2877 181.445V181.425C44.2877 181.179 44.2206 180.989 44.0864 180.853C43.9538 180.717 43.7525 180.649 43.4823 180.649C43.2023 180.649 42.9827 180.71 42.8236 180.833C42.6645 180.956 42.5526 181.087 42.488 181.226L41.9312 181.027C42.0306 180.795 42.1632 180.614 42.3289 180.485C42.4963 180.354 42.6786 180.263 42.8758 180.212C43.0747 180.159 43.2702 180.132 43.4624 180.132C43.5851 180.132 43.7259 180.147 43.885 180.177C44.0458 180.205 44.2007 180.264 44.3499 180.353C44.5007 180.443 44.6258 180.578 44.7252 180.759C44.8247 180.939 44.8744 181.181 44.8744 181.484V184H44.2877V183.483H44.2579C44.2181 183.566 44.1518 183.654 44.059 183.749C43.9662 183.843 43.8428 183.924 43.6887 183.99C43.5345 184.056 43.3464 184.089 43.1244 184.089ZM43.2139 183.562C43.4459 183.562 43.6414 183.517 43.8005 183.426C43.9613 183.335 44.0822 183.217 44.1634 183.073C44.2463 182.929 44.2877 182.777 44.2877 182.618V182.081C44.2629 182.111 44.2082 182.138 44.1237 182.163C44.0408 182.186 43.9447 182.207 43.8353 182.225C43.7276 182.242 43.6224 182.257 43.5196 182.27C43.4185 182.281 43.3365 182.291 43.2735 182.3C43.1211 182.32 42.9785 182.352 42.846 182.397C42.7151 182.44 42.609 182.505 42.5278 182.593C42.4482 182.679 42.4085 182.797 42.4085 182.946C42.4085 183.15 42.4839 183.304 42.6347 183.408C42.7871 183.511 42.9802 183.562 43.2139 183.562ZM48.9306 180.182L47.5186 184H46.9221L45.5101 180.182H46.1465L47.2005 183.224H47.2402L48.2942 180.182H48.9306ZM51.169 184.08C50.8011 184.08 50.4838 183.998 50.217 183.836C49.9518 183.672 49.7472 183.443 49.603 183.15C49.4605 182.855 49.3892 182.512 49.3892 182.121C49.3892 181.73 49.4605 181.385 49.603 181.087C49.7472 180.787 49.9477 180.553 50.2045 180.386C50.4631 180.217 50.7647 180.132 51.1094 180.132C51.3082 180.132 51.5046 180.165 51.6985 180.232C51.8924 180.298 52.0689 180.406 52.228 180.555C52.3871 180.702 52.5138 180.898 52.6083 181.141C52.7028 181.385 52.75 181.685 52.75 182.041V182.29H49.8068V181.783H52.1534C52.1534 181.567 52.1103 181.375 52.0241 181.206C51.9396 181.037 51.8187 180.904 51.6612 180.806C51.5054 180.708 51.3215 180.659 51.1094 180.659C50.8757 180.659 50.6735 180.717 50.5028 180.833C50.3338 180.947 50.2037 181.097 50.1126 181.281C50.0214 181.464 49.9759 181.662 49.9759 181.872V182.21C49.9759 182.499 50.0256 182.743 50.125 182.944C50.2261 183.142 50.3661 183.294 50.5451 183.398C50.7241 183.501 50.9321 183.553 51.169 183.553C51.3232 183.553 51.4624 183.531 51.5866 183.488C51.7126 183.443 51.8211 183.377 51.9123 183.289C52.0034 183.2 52.0739 183.089 52.1236 182.956L52.6903 183.115C52.6307 183.307 52.5304 183.476 52.3896 183.622C52.2487 183.766 52.0747 183.879 51.8675 183.96C51.6604 184.04 51.4276 184.08 51.169 184.08ZM54.229 181.703V184H53.6424V180.182H54.2092V180.778H54.2589C54.3484 180.585 54.4843 180.429 54.6665 180.311C54.8488 180.192 55.0842 180.132 55.3725 180.132C55.631 180.132 55.8572 180.185 56.0511 180.291C56.245 180.396 56.3958 180.555 56.5036 180.768C56.6113 180.981 56.6651 181.249 56.6651 181.574V184H56.0785V181.614C56.0785 181.314 56.0006 181.08 55.8448 180.913C55.689 180.744 55.4753 180.659 55.2035 180.659C55.0162 180.659 54.8488 180.7 54.7013 180.781C54.5555 180.862 54.4403 180.981 54.3558 181.136C54.2713 181.292 54.229 181.481 54.229 181.703ZM58.2442 178.909V180.659H57.6974V178.909H58.2442ZM60.9494 180.182V180.679H58.9707V180.182H60.9494ZM59.5474 179.267H60.1341V182.906C60.1341 183.072 60.1581 183.196 60.2061 183.279C60.2559 183.36 60.3188 183.415 60.3951 183.443C60.473 183.47 60.555 183.483 60.6412 183.483C60.7058 183.483 60.7588 183.48 60.8002 183.473C60.8417 183.465 60.8748 183.458 60.8997 183.453L61.019 183.98C60.9792 183.995 60.9237 184.01 60.8525 184.025C60.7812 184.041 60.6909 184.05 60.5815 184.05C60.4158 184.05 60.2534 184.014 60.0943 183.943C59.9368 183.872 59.8059 183.763 59.7015 183.617C59.5988 183.471 59.5474 183.287 59.5474 183.065V179.267ZM63.8006 184V180.182H64.3674V180.778H64.4171C64.4966 180.575 64.6251 180.416 64.8024 180.304C64.9797 180.189 65.1926 180.132 65.4412 180.132C65.6931 180.132 65.9028 180.189 66.0701 180.304C66.2392 180.416 66.3709 180.575 66.4654 180.778H66.5051C66.6029 180.581 66.7496 180.425 66.9451 180.309C67.1407 180.191 67.3752 180.132 67.6486 180.132C67.99 180.132 68.2692 180.239 68.4863 180.453C68.7034 180.665 68.812 180.996 68.812 181.445V184H68.2253V181.445C68.2253 181.163 68.1483 180.962 67.9941 180.841C67.84 180.72 67.6586 180.659 67.4498 180.659C67.1813 180.659 66.9733 180.74 66.8258 180.903C66.6783 181.063 66.6046 181.267 66.6046 181.514V184H66.008V181.385C66.008 181.168 65.9376 180.993 65.7967 180.86C65.6558 180.726 65.4744 180.659 65.2523 180.659C65.0998 180.659 64.9573 180.7 64.8248 180.781C64.6938 180.862 64.5878 180.975 64.5066 181.119C64.427 181.261 64.3873 181.426 64.3873 181.614V184H63.8006ZM71.0082 184.089C70.7662 184.089 70.5466 184.044 70.3494 183.953C70.1522 183.86 69.9956 183.727 69.8796 183.553C69.7636 183.377 69.7056 183.165 69.7056 182.916C69.7056 182.697 69.7487 182.52 69.8349 182.384C69.921 182.247 70.0362 182.139 70.1804 182.061C70.3246 181.983 70.4837 181.925 70.6577 181.887C70.8333 181.847 71.0098 181.816 71.1871 181.793C71.4192 181.763 71.6072 181.74 71.7514 181.725C71.8973 181.709 72.0033 181.682 72.0696 181.643C72.1375 181.605 72.1715 181.539 72.1715 181.445V181.425C72.1715 181.179 72.1044 180.989 71.9702 180.853C71.8376 180.717 71.6362 180.649 71.3661 180.649C71.0861 180.649 70.8665 180.71 70.7074 180.833C70.5483 180.956 70.4364 181.087 70.3718 181.226L69.815 181.027C69.9144 180.795 70.047 180.614 70.2127 180.485C70.3801 180.354 70.5624 180.263 70.7596 180.212C70.9585 180.159 71.154 180.132 71.3462 180.132C71.4689 180.132 71.6097 180.147 71.7688 180.177C71.9296 180.205 72.0845 180.264 72.2337 180.353C72.3845 180.443 72.5096 180.578 72.609 180.759C72.7085 180.939 72.7582 181.181 72.7582 181.484V184H72.1715V183.483H72.1417C72.1019 183.566 72.0356 183.654 71.9428 183.749C71.85 183.843 71.7266 183.924 71.5724 183.99C71.4183 184.056 71.2302 184.089 71.0082 184.089ZM71.0977 183.562C71.3297 183.562 71.5252 183.517 71.6843 183.426C71.8451 183.335 71.966 183.217 72.0472 183.073C72.1301 182.929 72.1715 182.777 72.1715 182.618V182.081C72.1467 182.111 72.092 182.138 72.0075 182.163C71.9246 182.186 71.8285 182.207 71.7191 182.225C71.6114 182.242 71.5062 182.257 71.4034 182.27C71.3023 182.281 71.2203 182.291 71.1573 182.3C71.0049 182.32 70.8623 182.352 70.7298 182.397C70.5988 182.44 70.4928 182.505 70.4116 182.593C70.332 182.679 70.2923 182.797 70.2923 182.946C70.2923 183.15 70.3677 183.304 70.5185 183.408C70.6709 183.511 70.864 183.562 71.0977 183.562ZM73.8289 184V180.182H74.3957V180.759H74.4355C74.5051 180.57 74.631 180.416 74.8133 180.299C74.9956 180.181 75.2011 180.122 75.4298 180.122C75.4729 180.122 75.5267 180.123 75.5914 180.125C75.656 180.126 75.7049 180.129 75.738 180.132V180.729C75.7181 180.724 75.6726 180.716 75.6013 180.706C75.5317 180.695 75.4579 180.689 75.3801 180.689C75.1945 180.689 75.0287 180.728 74.8829 180.806C74.7387 180.882 74.6244 180.988 74.5399 181.124C74.457 181.258 74.4156 181.411 74.4156 181.584V184H73.8289ZM76.9803 182.608L76.9703 181.882H77.0897L78.7601 180.182H79.486L77.7061 181.982H77.6564L76.9803 182.608ZM76.4334 184V178.909H77.0201V184H76.4334ZM78.8596 184L77.3681 182.111L77.7857 181.703L79.6053 184H78.8596ZM81.6847 184.08C81.3168 184.08 80.9994 183.998 80.7326 183.836C80.4674 183.672 80.2628 183.443 80.1186 183.15C79.9761 182.855 79.9048 182.512 79.9048 182.121C79.9048 181.73 79.9761 181.385 80.1186 181.087C80.2628 180.787 80.4633 180.553 80.7202 180.386C80.9787 180.217 81.2803 180.132 81.625 180.132C81.8239 180.132 82.0202 180.165 82.2141 180.232C82.408 180.298 82.5845 180.406 82.7436 180.555C82.9027 180.702 83.0295 180.898 83.1239 181.141C83.2184 181.385 83.2656 181.685 83.2656 182.041V182.29H80.3224V181.783H82.669C82.669 181.567 82.6259 181.375 82.5398 181.206C82.4553 181.037 82.3343 180.904 82.1768 180.806C82.0211 180.708 81.8371 180.659 81.625 180.659C81.3913 180.659 81.1892 180.717 81.0185 180.833C80.8494 180.947 80.7193 181.097 80.6282 181.281C80.5371 181.464 80.4915 181.662 80.4915 181.872V182.21C80.4915 182.499 80.5412 182.743 80.6406 182.944C80.7417 183.142 80.8817 183.294 81.0607 183.398C81.2397 183.501 81.4477 183.553 81.6847 183.553C81.8388 183.553 81.978 183.531 82.1023 183.488C82.2282 183.443 82.3368 183.377 82.4279 183.289C82.5191 183.2 82.5895 183.089 82.6392 182.956L83.206 183.115C83.1463 183.307 83.046 183.476 82.9052 183.622C82.7643 183.766 82.5903 183.879 82.3832 183.96C82.176 184.04 81.9432 184.08 81.6847 184.08ZM85.5998 184.08C85.2816 184.08 85.0007 183.999 84.7571 183.838C84.5135 183.676 84.3229 183.447 84.1854 183.152C84.0478 182.856 83.979 182.505 83.979 182.101C83.979 181.7 84.0478 181.352 84.1854 181.057C84.3229 180.762 84.5143 180.534 84.7596 180.373C85.0049 180.212 85.2882 180.132 85.6097 180.132C85.8583 180.132 86.0547 180.174 86.1989 180.256C86.3447 180.338 86.4557 180.43 86.532 180.535C86.6098 180.638 86.6703 180.722 86.7134 180.788H86.7631V178.909H87.3498V184H86.783V183.413H86.7134C86.6703 183.483 86.609 183.571 86.5295 183.677C86.4499 183.781 86.3364 183.875 86.1889 183.958C86.0414 184.039 85.8451 184.08 85.5998 184.08ZM85.6793 183.553C85.9147 183.553 86.1135 183.491 86.2759 183.369C86.4383 183.244 86.5618 183.073 86.6463 182.854C86.7308 182.634 86.7731 182.379 86.7731 182.091C86.7731 181.806 86.7317 181.556 86.6488 181.343C86.5659 181.127 86.4433 180.96 86.2809 180.841C86.1185 180.72 85.918 180.659 85.6793 180.659C85.4308 180.659 85.2236 180.723 85.0579 180.85C84.8938 180.976 84.7704 181.148 84.6875 181.365C84.6063 181.58 84.5657 181.822 84.5657 182.091C84.5657 182.363 84.6071 182.61 84.69 182.832C84.7745 183.052 84.8988 183.228 85.0629 183.359C85.2286 183.488 85.4341 183.553 85.6793 183.553ZM91.598 184.089C91.3561 184.089 91.1365 184.044 90.9393 183.953C90.7421 183.86 90.5855 183.727 90.4695 183.553C90.3535 183.377 90.2955 183.165 90.2955 182.916C90.2955 182.697 90.3385 182.52 90.4247 182.384C90.5109 182.247 90.6261 182.139 90.7702 182.061C90.9144 181.983 91.0735 181.925 91.2475 181.887C91.4232 181.847 91.5997 181.816 91.777 181.793C92.009 181.763 92.1971 181.74 92.3413 181.725C92.4871 181.709 92.5932 181.682 92.6594 181.643C92.7274 181.605 92.7614 181.539 92.7614 181.445V181.425C92.7614 181.179 92.6942 180.989 92.56 180.853C92.4274 180.717 92.2261 180.649 91.956 180.649C91.6759 180.649 91.4563 180.71 91.2972 180.833C91.1381 180.956 91.0263 181.087 90.9616 181.226L90.4048 181.027C90.5043 180.795 90.6368 180.614 90.8026 180.485C90.9699 180.354 91.1522 180.263 91.3494 180.212C91.5483 180.159 91.7438 180.132 91.9361 180.132C92.0587 180.132 92.1996 180.147 92.3587 180.177C92.5194 180.205 92.6744 180.264 92.8235 180.353C92.9743 180.443 93.0994 180.578 93.1989 180.759C93.2983 180.939 93.348 181.181 93.348 181.484V184H92.7614V183.483H92.7315C92.6918 183.566 92.6255 183.654 92.5327 183.749C92.4399 183.843 92.3164 183.924 92.1623 183.99C92.0082 184.056 91.8201 184.089 91.598 184.089ZM91.6875 183.562C91.9195 183.562 92.1151 183.517 92.2741 183.426C92.4349 183.335 92.5559 183.217 92.6371 183.073C92.7199 182.929 92.7614 182.777 92.7614 182.618V182.081C92.7365 182.111 92.6818 182.138 92.5973 182.163C92.5144 182.186 92.4183 182.207 92.3089 182.225C92.2012 182.242 92.096 182.257 91.9933 182.27C91.8922 182.281 91.8101 182.291 91.7472 182.3C91.5947 182.32 91.4522 182.352 91.3196 182.397C91.1887 182.44 91.0826 182.505 91.0014 182.593C90.9219 182.679 90.8821 182.797 90.8821 182.946C90.8821 183.15 90.9575 183.304 91.1083 183.408C91.2608 183.511 91.4538 183.562 91.6875 183.562ZM95.0054 181.703V184H94.4188V180.182H94.9855V180.778H95.0352C95.1247 180.585 95.2606 180.429 95.4429 180.311C95.6252 180.192 95.8605 180.132 96.1489 180.132C96.4074 180.132 96.6336 180.185 96.8275 180.291C97.0214 180.396 97.1722 180.555 97.2799 180.768C97.3876 180.981 97.4415 181.249 97.4415 181.574V184H96.8548V181.614C96.8548 181.314 96.777 181.08 96.6212 180.913C96.4654 180.744 96.2516 180.659 95.9798 180.659C95.7926 180.659 95.6252 180.7 95.4777 180.781C95.3319 180.862 95.2167 180.981 95.1322 181.136C95.0477 181.292 95.0054 181.481 95.0054 181.703ZM98.7546 185.432C98.6552 185.432 98.5665 185.424 98.4886 185.407C98.4107 185.392 98.3569 185.377 98.3271 185.362L98.4762 184.845C98.6187 184.882 98.7447 184.895 98.854 184.885C98.9634 184.875 99.0604 184.826 99.1449 184.738C99.2311 184.652 99.3098 184.512 99.381 184.318L99.4904 184.02L98.0785 180.182H98.7148L99.7688 183.224H99.8086L100.863 180.182H101.499L99.8782 184.557C99.8053 184.754 99.715 184.917 99.6072 185.047C99.4995 185.177 99.3744 185.274 99.2319 185.337C99.091 185.4 98.9319 185.432 98.7546 185.432ZM105.942 180.182V180.679H103.884V180.182H105.942ZM104.501 184V179.655C104.501 179.436 104.552 179.254 104.655 179.108C104.757 178.962 104.891 178.853 105.055 178.78C105.219 178.707 105.392 178.67 105.574 178.67C105.719 178.67 105.836 178.682 105.927 178.705C106.019 178.728 106.086 178.75 106.131 178.77L105.962 179.277C105.932 179.267 105.891 179.255 105.838 179.24C105.787 179.225 105.719 179.217 105.634 179.217C105.44 179.217 105.3 179.266 105.214 179.364C105.129 179.462 105.087 179.605 105.087 179.794V184H104.501ZM107.779 184.089C107.537 184.089 107.317 184.044 107.12 183.953C106.923 183.86 106.766 183.727 106.65 183.553C106.534 183.377 106.476 183.165 106.476 182.916C106.476 182.697 106.519 182.52 106.605 182.384C106.692 182.247 106.807 182.139 106.951 182.061C107.095 181.983 107.254 181.925 107.428 181.887C107.604 181.847 107.78 181.816 107.958 181.793C108.19 181.763 108.378 181.74 108.522 181.725C108.668 181.709 108.774 181.682 108.84 181.643C108.908 181.605 108.942 181.539 108.942 181.445V181.425C108.942 181.179 108.875 180.989 108.741 180.853C108.608 180.717 108.407 180.649 108.137 180.649C107.857 180.649 107.637 180.71 107.478 180.833C107.319 180.956 107.207 181.087 107.142 181.226L106.585 181.027C106.685 180.795 106.818 180.614 106.983 180.485C107.151 180.354 107.333 180.263 107.53 180.212C107.729 180.159 107.925 180.132 108.117 180.132C108.239 180.132 108.38 180.147 108.539 180.177C108.7 180.205 108.855 180.264 109.004 180.353C109.155 180.443 109.28 180.578 109.38 180.759C109.479 180.939 109.529 181.181 109.529 181.484V184H108.942V183.483H108.912C108.872 183.566 108.806 183.654 108.713 183.749C108.621 183.843 108.497 183.924 108.343 183.99C108.189 184.056 108.001 184.089 107.779 184.089ZM107.868 183.562C108.1 183.562 108.296 183.517 108.455 183.426C108.616 183.335 108.737 183.217 108.818 183.073C108.901 182.929 108.942 182.777 108.942 182.618V182.081C108.917 182.111 108.862 182.138 108.778 182.163C108.695 182.186 108.599 182.207 108.49 182.225C108.382 182.242 108.277 182.257 108.174 182.27C108.073 182.281 107.991 182.291 107.928 182.3C107.775 182.32 107.633 182.352 107.5 182.397C107.369 182.44 107.263 182.505 107.182 182.593C107.103 182.679 107.063 182.797 107.063 182.946C107.063 183.15 107.138 183.304 107.289 183.408C107.441 183.511 107.634 183.562 107.868 183.562ZM113.585 180.182L112.173 184H111.576L110.164 180.182H110.801L111.855 183.224H111.895L112.949 180.182H113.585ZM115.774 184.08C115.429 184.08 115.126 183.998 114.866 183.833C114.608 183.669 114.406 183.44 114.26 183.145C114.116 182.85 114.044 182.505 114.044 182.111C114.044 181.713 114.116 181.366 114.26 181.069C114.406 180.773 114.608 180.542 114.866 180.378C115.126 180.214 115.429 180.132 115.774 180.132C116.118 180.132 116.42 180.214 116.678 180.378C116.939 180.542 117.141 180.773 117.285 181.069C117.431 181.366 117.504 181.713 117.504 182.111C117.504 182.505 117.431 182.85 117.285 183.145C117.141 183.44 116.939 183.669 116.678 183.833C116.42 183.998 116.118 184.08 115.774 184.08ZM115.774 183.553C116.035 183.553 116.251 183.485 116.42 183.351C116.589 183.217 116.714 183.04 116.795 182.822C116.876 182.603 116.917 182.366 116.917 182.111C116.917 181.856 116.876 181.618 116.795 181.397C116.714 181.177 116.589 180.999 116.42 180.863C116.251 180.727 116.035 180.659 115.774 180.659C115.512 180.659 115.296 180.727 115.127 180.863C114.958 180.999 114.833 181.177 114.752 181.397C114.671 181.618 114.63 181.856 114.63 182.111C114.63 182.366 114.671 182.603 114.752 182.822C114.833 183.04 114.958 183.217 115.127 183.351C115.296 183.485 115.512 183.553 115.774 183.553ZM118.399 184V180.182H118.966V180.759H119.006C119.075 180.57 119.201 180.416 119.384 180.299C119.566 180.181 119.771 180.122 120 180.122C120.043 180.122 120.097 180.123 120.162 180.125C120.226 180.126 120.275 180.129 120.308 180.132V180.729C120.288 180.724 120.243 180.716 120.172 180.706C120.102 180.695 120.028 180.689 119.95 180.689C119.765 180.689 119.599 180.728 119.453 180.806C119.309 180.882 119.195 180.988 119.11 181.124C119.027 181.258 118.986 181.411 118.986 181.584V184H118.399ZM121.004 184V180.182H121.59V184H121.004ZM121.302 179.545C121.188 179.545 121.089 179.507 121.006 179.429C120.925 179.351 120.884 179.257 120.884 179.148C120.884 179.038 120.925 178.945 121.006 178.867C121.089 178.789 121.188 178.75 121.302 178.75C121.416 178.75 121.514 178.789 121.595 178.867C121.678 178.945 121.72 179.038 121.72 179.148C121.72 179.257 121.678 179.351 121.595 179.429C121.514 179.507 121.416 179.545 121.302 179.545ZM124.325 180.182V180.679H122.347V180.182H124.325ZM122.923 179.267H123.51V182.906C123.51 183.072 123.534 183.196 123.582 183.279C123.632 183.36 123.695 183.415 123.771 183.443C123.849 183.47 123.931 183.483 124.017 183.483C124.082 183.483 124.135 183.48 124.176 183.473C124.218 183.465 124.251 183.458 124.276 183.453L124.395 183.98C124.355 183.995 124.3 184.01 124.228 184.025C124.157 184.041 124.067 184.05 123.957 184.05C123.792 184.05 123.629 184.014 123.47 183.943C123.313 183.872 123.182 183.763 123.078 183.617C122.975 183.471 122.923 183.287 122.923 183.065V179.267ZM126.768 184.08C126.4 184.08 126.082 183.998 125.816 183.836C125.55 183.672 125.346 183.443 125.202 183.15C125.059 182.855 124.988 182.512 124.988 182.121C124.988 181.73 125.059 181.385 125.202 181.087C125.346 180.787 125.546 180.553 125.803 180.386C126.062 180.217 126.363 180.132 126.708 180.132C126.907 180.132 127.103 180.165 127.297 180.232C127.491 180.298 127.668 180.406 127.827 180.555C127.986 180.702 128.112 180.898 128.207 181.141C128.301 181.385 128.349 181.685 128.349 182.041V182.29H125.405V181.783H127.752C127.752 181.567 127.709 181.375 127.623 181.206C127.538 181.037 127.417 180.904 127.26 180.806C127.104 180.708 126.92 180.659 126.708 180.659C126.474 180.659 126.272 180.717 126.101 180.833C125.932 180.947 125.802 181.097 125.711 181.281C125.62 181.464 125.574 181.662 125.574 181.872V182.21C125.574 182.499 125.624 182.743 125.724 182.944C125.825 183.142 125.965 183.294 126.144 183.398C126.323 183.501 126.531 183.553 126.768 183.553C126.922 183.553 127.061 183.531 127.185 183.488C127.311 183.443 127.42 183.377 127.511 183.289C127.602 183.2 127.672 183.089 127.722 182.956L128.289 183.115C128.229 183.307 128.129 183.476 127.988 183.622C127.847 183.766 127.673 183.879 127.466 183.96C127.259 184.04 127.026 184.08 126.768 184.08ZM131.946 181.037L131.419 181.186C131.385 181.098 131.337 181.013 131.272 180.93C131.209 180.846 131.123 180.776 131.013 180.721C130.904 180.667 130.764 180.639 130.593 180.639C130.36 180.639 130.165 180.693 130.009 180.801C129.855 180.907 129.778 181.042 129.778 181.206C129.778 181.352 129.831 181.467 129.937 181.551C130.043 181.636 130.209 181.706 130.434 181.763L131.001 181.902C131.342 181.985 131.597 182.112 131.764 182.282C131.931 182.451 132.015 182.669 132.015 182.936C132.015 183.155 131.952 183.35 131.826 183.523C131.702 183.695 131.528 183.831 131.304 183.93C131.081 184.03 130.82 184.08 130.524 184.08C130.134 184.08 129.812 183.995 129.557 183.826C129.302 183.657 129.14 183.41 129.072 183.085L129.629 182.946C129.682 183.152 129.782 183.306 129.93 183.408C130.079 183.511 130.273 183.562 130.514 183.562C130.787 183.562 131.004 183.504 131.165 183.388C131.327 183.271 131.409 183.13 131.409 182.966C131.409 182.833 131.362 182.722 131.269 182.633C131.177 182.542 131.034 182.474 130.842 182.429L130.206 182.28C129.856 182.197 129.599 182.069 129.435 181.895C129.273 181.719 129.191 181.499 129.191 181.236C129.191 181.02 129.252 180.83 129.373 180.664C129.495 180.498 129.662 180.368 129.872 180.274C130.085 180.179 130.325 180.132 130.593 180.132C130.971 180.132 131.268 180.215 131.483 180.381C131.7 180.546 131.854 180.765 131.946 181.037ZM135.245 185.432C135.145 185.432 135.057 185.424 134.979 185.407C134.901 185.392 134.847 185.377 134.817 185.362L134.966 184.845C135.109 184.882 135.235 184.895 135.344 184.885C135.454 184.875 135.551 184.826 135.635 184.738C135.721 184.652 135.8 184.512 135.871 184.318L135.981 184.02L134.569 180.182H135.205L136.259 183.224H136.299L137.353 180.182H137.989L136.368 184.557C136.296 184.754 136.205 184.917 136.097 185.047C135.99 185.177 135.865 185.274 135.722 185.337C135.581 185.4 135.422 185.432 135.245 185.432ZM140.228 184.08C139.86 184.08 139.542 183.998 139.276 183.836C139.01 183.672 138.806 183.443 138.662 183.15C138.519 182.855 138.448 182.512 138.448 182.121C138.448 181.73 138.519 181.385 138.662 181.087C138.806 180.787 139.006 180.553 139.263 180.386C139.522 180.217 139.823 180.132 140.168 180.132C140.367 180.132 140.563 180.165 140.757 180.232C140.951 180.298 141.127 180.406 141.287 180.555C141.446 180.702 141.572 180.898 141.667 181.141C141.761 181.385 141.809 181.685 141.809 182.041V182.29H138.865V181.783H141.212C141.212 181.567 141.169 181.375 141.083 181.206C140.998 181.037 140.877 180.904 140.72 180.806C140.564 180.708 140.38 180.659 140.168 180.659C139.934 180.659 139.732 180.717 139.561 180.833C139.392 180.947 139.262 181.097 139.171 181.281C139.08 181.464 139.034 181.662 139.034 181.872V182.21C139.034 182.499 139.084 182.743 139.184 182.944C139.285 183.142 139.425 183.294 139.604 183.398C139.783 183.501 139.991 183.553 140.228 183.553C140.382 183.553 140.521 183.531 140.645 183.488C140.771 183.443 140.88 183.377 140.971 183.289C141.062 183.2 141.132 183.089 141.182 182.956L141.749 183.115C141.689 183.307 141.589 183.476 141.448 183.622C141.307 183.766 141.133 183.879 140.926 183.96C140.719 184.04 140.486 184.08 140.228 184.08ZM144.362 180.182V180.679H142.383V180.182H144.362ZM142.96 179.267H143.546V182.906C143.546 183.072 143.57 183.196 143.618 183.279C143.668 183.36 143.731 183.415 143.807 183.443C143.885 183.47 143.967 183.483 144.053 183.483C144.118 183.483 144.171 183.48 144.212 183.473C144.254 183.465 144.287 183.458 144.312 183.453L144.431 183.98C144.391 183.995 144.336 184.01 144.265 184.025C144.193 184.041 144.103 184.05 143.994 184.05C143.828 184.05 143.665 184.014 143.506 183.943C143.349 183.872 143.218 183.763 143.114 183.617C143.011 183.471 142.96 183.287 142.96 183.065V179.267ZM146.02 178.909L145.97 182.568H145.393L145.343 178.909H146.02ZM145.681 184.04C145.559 184.04 145.454 183.996 145.366 183.908C145.278 183.82 145.234 183.715 145.234 183.592C145.234 183.47 145.278 183.364 145.366 183.277C145.454 183.189 145.559 183.145 145.681 183.145C145.804 183.145 145.909 183.189 145.997 183.277C146.085 183.364 146.129 183.47 146.129 183.592C146.129 183.674 146.108 183.748 146.067 183.816C146.027 183.884 145.973 183.939 145.905 183.98C145.839 184.02 145.764 184.04 145.681 184.04Z" fill="#A0A0A0"/>
<path d="M60.9 163.77V171H60.21C60.1033 171 60.0133 170.983 59.94 170.95C59.87 170.913 59.8017 170.853 59.735 170.77L55.96 165.95C55.98 166.17 55.99 166.373 55.99 166.56V171H54.805V163.77H55.51C55.5667 163.77 55.615 163.773 55.655 163.78C55.6983 163.783 55.735 163.793 55.765 163.81C55.7983 163.823 55.83 163.845 55.86 163.875C55.89 163.902 55.9233 163.938 55.96 163.985L59.75 168.825C59.74 168.708 59.7317 168.593 59.725 168.48C59.7183 168.367 59.715 168.262 59.715 168.165V163.77H60.9ZM64.4288 165.79C64.8088 165.79 65.1538 165.852 65.4638 165.975C65.7772 166.098 66.0438 166.273 66.2638 166.5C66.4872 166.727 66.6588 167.003 66.7788 167.33C66.8988 167.657 66.9588 168.022 66.9588 168.425C66.9588 168.832 66.8988 169.198 66.7788 169.525C66.6588 169.852 66.4872 170.13 66.2638 170.36C66.0438 170.59 65.7772 170.767 65.4638 170.89C65.1538 171.013 64.8088 171.075 64.4288 171.075C64.0455 171.075 63.6972 171.013 63.3838 170.89C63.0705 170.767 62.8022 170.59 62.5788 170.36C62.3588 170.13 62.1872 169.852 62.0638 169.525C61.9438 169.198 61.8838 168.832 61.8838 168.425C61.8838 168.022 61.9438 167.657 62.0638 167.33C62.1872 167.003 62.3588 166.727 62.5788 166.5C62.8022 166.273 63.0705 166.098 63.3838 165.975C63.6972 165.852 64.0455 165.79 64.4288 165.79ZM64.4288 170.125C64.8555 170.125 65.1705 169.982 65.3738 169.695C65.5805 169.408 65.6838 168.988 65.6838 168.435C65.6838 167.882 65.5805 167.46 65.3738 167.17C65.1705 166.88 64.8555 166.735 64.4288 166.735C63.9955 166.735 63.6738 166.882 63.4638 167.175C63.2572 167.465 63.1538 167.885 63.1538 168.435C63.1538 168.985 63.2572 169.405 63.4638 169.695C63.6738 169.982 63.9955 170.125 64.4288 170.125ZM71.8777 164.84V166.98H74.5877V168.055H71.8777V171H70.5277V163.77H75.0877V164.84H71.8777ZM78.0329 168.81C77.6762 168.827 77.3762 168.858 77.1329 168.905C76.8896 168.948 76.6946 169.005 76.5479 169.075C76.4012 169.145 76.2962 169.227 76.2329 169.32C76.1696 169.413 76.1379 169.515 76.1379 169.625C76.1379 169.842 76.2012 169.997 76.3279 170.09C76.4579 170.183 76.6262 170.23 76.8329 170.23C77.0862 170.23 77.3046 170.185 77.4879 170.095C77.6746 170.002 77.8562 169.862 78.0329 169.675V168.81ZM75.2029 166.585C75.7929 166.045 76.5029 165.775 77.3329 165.775C77.6329 165.775 77.9012 165.825 78.1379 165.925C78.3746 166.022 78.5746 166.158 78.7379 166.335C78.9012 166.508 79.0246 166.717 79.1079 166.96C79.1946 167.203 79.2379 167.47 79.2379 167.76V171H78.6779C78.5612 171 78.4712 170.983 78.4079 170.95C78.3446 170.913 78.2946 170.842 78.2579 170.735L78.1479 170.365C78.0179 170.482 77.8912 170.585 77.7679 170.675C77.6446 170.762 77.5162 170.835 77.3829 170.895C77.2496 170.955 77.1062 171 76.9529 171.03C76.8029 171.063 76.6362 171.08 76.4529 171.08C76.2362 171.08 76.0362 171.052 75.8529 170.995C75.6696 170.935 75.5112 170.847 75.3779 170.73C75.2446 170.613 75.1412 170.468 75.0679 170.295C74.9946 170.122 74.9579 169.92 74.9579 169.69C74.9579 169.56 74.9796 169.432 75.0229 169.305C75.0662 169.175 75.1362 169.052 75.2329 168.935C75.3329 168.818 75.4612 168.708 75.6179 168.605C75.7746 168.502 75.9662 168.412 76.1929 168.335C76.4229 168.258 76.6896 168.197 76.9929 168.15C77.2962 168.1 77.6429 168.07 78.0329 168.06V167.76C78.0329 167.417 77.9596 167.163 77.8129 167C77.6662 166.833 77.4546 166.75 77.1779 166.75C76.9779 166.75 76.8112 166.773 76.6779 166.82C76.5479 166.867 76.4329 166.92 76.3329 166.98C76.2329 167.037 76.1412 167.088 76.0579 167.135C75.9779 167.182 75.8879 167.205 75.7879 167.205C75.7012 167.205 75.6279 167.183 75.5679 167.14C75.5079 167.093 75.4596 167.04 75.4229 166.98L75.2029 166.585ZM84.9088 165.87L82.8738 171H81.7538L79.7188 165.87H80.7388C80.8322 165.87 80.9088 165.892 80.9688 165.935C81.0322 165.978 81.0738 166.033 81.0938 166.1L82.0838 168.84C82.1372 169 82.1838 169.157 82.2238 169.31C82.2638 169.463 82.2988 169.617 82.3288 169.77C82.3622 169.617 82.3988 169.463 82.4388 169.31C82.4788 169.157 82.5272 169 82.5838 168.84L83.5938 166.1C83.6172 166.033 83.6588 165.978 83.7188 165.935C83.7788 165.892 83.8505 165.87 83.9338 165.87H84.9088ZM87.6808 165.79C88.0608 165.79 88.4058 165.852 88.7158 165.975C89.0291 166.098 89.2958 166.273 89.5158 166.5C89.7391 166.727 89.9108 167.003 90.0308 167.33C90.1508 167.657 90.2108 168.022 90.2108 168.425C90.2108 168.832 90.1508 169.198 90.0308 169.525C89.9108 169.852 89.7391 170.13 89.5158 170.36C89.2958 170.59 89.0291 170.767 88.7158 170.89C88.4058 171.013 88.0608 171.075 87.6808 171.075C87.2974 171.075 86.9491 171.013 86.6358 170.89C86.3224 170.767 86.0541 170.59 85.8308 170.36C85.6108 170.13 85.4391 169.852 85.3158 169.525C85.1958 169.198 85.1358 168.832 85.1358 168.425C85.1358 168.022 85.1958 167.657 85.3158 167.33C85.4391 167.003 85.6108 166.727 85.8308 166.5C86.0541 166.273 86.3224 166.098 86.6358 165.975C86.9491 165.852 87.2974 165.79 87.6808 165.79ZM87.6808 170.125C88.1074 170.125 88.4224 169.982 88.6258 169.695C88.8324 169.408 88.9358 168.988 88.9358 168.435C88.9358 167.882 88.8324 167.46 88.6258 167.17C88.4224 166.88 88.1074 166.735 87.6808 166.735C87.2474 166.735 86.9258 166.882 86.7158 167.175C86.5091 167.465 86.4058 167.885 86.4058 168.435C86.4058 168.985 86.5091 169.405 86.7158 169.695C86.9258 169.982 87.2474 170.125 87.6808 170.125ZM95.573 165.87V171H94.818C94.6546 171 94.5513 170.925 94.508 170.775L94.423 170.365C94.213 170.578 93.9813 170.752 93.728 170.885C93.4746 171.015 93.1763 171.08 92.833 171.08C92.553 171.08 92.3046 171.033 92.088 170.94C91.8746 170.843 91.6946 170.708 91.548 170.535C91.4013 170.362 91.2896 170.157 91.213 169.92C91.1396 169.68 91.103 169.417 91.103 169.13V165.87H92.338V169.13C92.338 169.443 92.4096 169.687 92.553 169.86C92.6996 170.03 92.918 170.115 93.208 170.115C93.4213 170.115 93.6213 170.068 93.808 169.975C93.9946 169.878 94.1713 169.747 94.338 169.58V165.87H95.573ZM97.9625 166.76C98.1225 166.453 98.3125 166.213 98.5325 166.04C98.7525 165.863 99.0125 165.775 99.3125 165.775C99.5492 165.775 99.7392 165.827 99.8825 165.93L99.8025 166.855C99.7858 166.915 99.7608 166.958 99.7275 166.985C99.6975 167.008 99.6558 167.02 99.6025 167.02C99.5525 167.02 99.4775 167.012 99.3775 166.995C99.2808 166.978 99.1858 166.97 99.0925 166.97C98.9558 166.97 98.8342 166.99 98.7275 167.03C98.6208 167.07 98.5242 167.128 98.4375 167.205C98.3542 167.278 98.2792 167.368 98.2125 167.475C98.1492 167.582 98.0892 167.703 98.0325 167.84V171H96.7975V165.87H97.5225C97.6492 165.87 97.7375 165.893 97.7875 165.94C97.8375 165.983 97.8708 166.063 97.8875 166.18L97.9625 166.76ZM101.808 165.87V171H100.568V165.87H101.808ZM101.978 164.375C101.978 164.482 101.956 164.582 101.913 164.675C101.87 164.768 101.811 164.85 101.738 164.92C101.668 164.99 101.585 165.047 101.488 165.09C101.391 165.13 101.288 165.15 101.178 165.15C101.071 165.15 100.97 165.13 100.873 165.09C100.78 165.047 100.698 164.99 100.628 164.92C100.558 164.85 100.501 164.768 100.458 164.675C100.418 164.582 100.398 164.482 100.398 164.375C100.398 164.265 100.418 164.162 100.458 164.065C100.501 163.968 100.558 163.885 100.628 163.815C100.698 163.745 100.78 163.69 100.873 163.65C100.97 163.607 101.071 163.585 101.178 163.585C101.288 163.585 101.391 163.607 101.488 163.65C101.585 163.69 101.668 163.745 101.738 163.815C101.811 163.885 101.87 163.968 101.913 164.065C101.956 164.162 101.978 164.265 101.978 164.375ZM104.777 171.08C104.33 171.08 103.987 170.955 103.747 170.705C103.51 170.452 103.392 170.103 103.392 169.66V166.795H102.867C102.8 166.795 102.744 166.773 102.697 166.73C102.65 166.687 102.627 166.622 102.627 166.535V166.045L103.452 165.91L103.712 164.51C103.729 164.443 103.76 164.392 103.807 164.355C103.854 164.318 103.914 164.3 103.987 164.3H104.627V165.915H105.997V166.795H104.627V169.575C104.627 169.735 104.665 169.86 104.742 169.95C104.822 170.04 104.93 170.085 105.067 170.085C105.144 170.085 105.207 170.077 105.257 170.06C105.31 170.04 105.355 170.02 105.392 170C105.432 169.98 105.467 169.962 105.497 169.945C105.527 169.925 105.557 169.915 105.587 169.915C105.624 169.915 105.654 169.925 105.677 169.945C105.7 169.962 105.725 169.988 105.752 170.025L106.122 170.625C105.942 170.775 105.735 170.888 105.502 170.965C105.269 171.042 105.027 171.08 104.777 171.08ZM110.054 167.845C110.054 167.685 110.03 167.535 109.984 167.395C109.94 167.252 109.874 167.127 109.784 167.02C109.694 166.913 109.579 166.83 109.439 166.77C109.302 166.707 109.142 166.675 108.959 166.675C108.602 166.675 108.32 166.777 108.114 166.98C107.91 167.183 107.78 167.472 107.724 167.845H110.054ZM107.699 168.59C107.719 168.853 107.765 169.082 107.839 169.275C107.912 169.465 108.009 169.623 108.129 169.75C108.249 169.873 108.39 169.967 108.554 170.03C108.72 170.09 108.904 170.12 109.104 170.12C109.304 170.12 109.475 170.097 109.619 170.05C109.765 170.003 109.892 169.952 109.999 169.895C110.109 169.838 110.204 169.787 110.284 169.74C110.367 169.693 110.447 169.67 110.524 169.67C110.627 169.67 110.704 169.708 110.754 169.785L111.109 170.235C110.972 170.395 110.819 170.53 110.649 170.64C110.479 170.747 110.3 170.833 110.114 170.9C109.93 170.963 109.742 171.008 109.549 171.035C109.359 171.062 109.174 171.075 108.994 171.075C108.637 171.075 108.305 171.017 107.999 170.9C107.692 170.78 107.425 170.605 107.199 170.375C106.972 170.142 106.794 169.855 106.664 169.515C106.534 169.172 106.469 168.775 106.469 168.325C106.469 167.975 106.525 167.647 106.639 167.34C106.752 167.03 106.914 166.762 107.124 166.535C107.337 166.305 107.595 166.123 107.899 165.99C108.205 165.857 108.55 165.79 108.934 165.79C109.257 165.79 109.555 165.842 109.829 165.945C110.102 166.048 110.337 166.2 110.534 166.4C110.73 166.597 110.884 166.84 110.994 167.13C111.107 167.417 111.164 167.745 111.164 168.115C111.164 168.302 111.144 168.428 111.104 168.495C111.064 168.558 110.987 168.59 110.874 168.59H107.699ZM115.22 166.87C115.187 166.923 115.152 166.962 115.115 166.985C115.079 167.005 115.032 167.015 114.975 167.015C114.915 167.015 114.85 166.998 114.78 166.965C114.714 166.932 114.635 166.895 114.545 166.855C114.455 166.812 114.352 166.773 114.235 166.74C114.122 166.707 113.987 166.69 113.83 166.69C113.587 166.69 113.395 166.742 113.255 166.845C113.119 166.948 113.05 167.083 113.05 167.25C113.05 167.36 113.085 167.453 113.155 167.53C113.229 167.603 113.324 167.668 113.44 167.725C113.56 167.782 113.695 167.833 113.845 167.88C113.995 167.923 114.147 167.972 114.3 168.025C114.457 168.078 114.61 168.14 114.76 168.21C114.91 168.277 115.044 168.363 115.16 168.47C115.28 168.573 115.375 168.698 115.445 168.845C115.519 168.992 115.555 169.168 115.555 169.375C115.555 169.622 115.51 169.85 115.42 170.06C115.334 170.267 115.204 170.447 115.03 170.6C114.857 170.75 114.642 170.868 114.385 170.955C114.132 171.038 113.839 171.08 113.505 171.08C113.329 171.08 113.155 171.063 112.985 171.03C112.819 171 112.657 170.957 112.5 170.9C112.347 170.843 112.204 170.777 112.07 170.7C111.94 170.623 111.825 170.54 111.725 170.45L112.01 169.98C112.047 169.923 112.09 169.88 112.14 169.85C112.19 169.82 112.254 169.805 112.33 169.805C112.407 169.805 112.479 169.827 112.545 169.87C112.615 169.913 112.695 169.96 112.785 170.01C112.875 170.06 112.98 170.107 113.1 170.15C113.224 170.193 113.379 170.215 113.565 170.215C113.712 170.215 113.837 170.198 113.94 170.165C114.047 170.128 114.134 170.082 114.2 170.025C114.27 169.968 114.32 169.903 114.35 169.83C114.384 169.753 114.4 169.675 114.4 169.595C114.4 169.475 114.364 169.377 114.29 169.3C114.22 169.223 114.125 169.157 114.005 169.1C113.889 169.043 113.754 168.993 113.6 168.95C113.45 168.903 113.295 168.853 113.135 168.8C112.979 168.747 112.824 168.685 112.67 168.615C112.52 168.542 112.385 168.45 112.265 168.34C112.149 168.23 112.054 168.095 111.98 167.935C111.91 167.775 111.875 167.582 111.875 167.355C111.875 167.145 111.917 166.945 112 166.755C112.084 166.565 112.205 166.4 112.365 166.26C112.529 166.117 112.73 166.003 112.97 165.92C113.214 165.833 113.494 165.79 113.81 165.79C114.164 165.79 114.485 165.848 114.775 165.965C115.065 166.082 115.307 166.235 115.5 166.425L115.22 166.87Z" fill="#939090"/>
<path d="M84.65 144.56C104.891 144.56 121.3 143.539 121.3 142.28C121.3 141.021 104.891 140 84.65 140C64.4088 140 48 141.021 48 142.28C48 143.539 64.4088 144.56 84.65 144.56Z" fill="#F2F2F2"/>
</svg>
