<svg width="100" height="100" viewBox="0 0 100 100" fill="none" xmlns="http://www.w3.org/2000/svg">
<path d="M68.0514 29.543L50.1918 43.481L31.9238 29.543V29.5467L31.9459 29.5656V49.0825L49.986 63.3217L68.0514 49.6323V29.543Z" fill="white"/>
<path d="M72.741 26.1526L68.0508 29.5429V49.6323L82.8093 38.3013V31.4754C82.8093 31.4754 81.018 21.7264 72.741 26.1526Z" fill="white"/>
<path d="M68.0508 49.6323V75.6887H79.3624C79.3624 75.6887 82.5814 75.3573 82.8129 71.6882V38.3013L68.0508 49.6323Z" fill="white"/>
<path d="M31.9467 75.7117V49.0825L31.9238 49.0637L31.9467 75.7117Z" fill="#C5221F"/>
<path d="M31.9241 29.5463L27.2596 26.1748C18.9827 21.7485 17.1875 31.4938 17.1875 31.4938V38.3195L31.9241 49.0632V29.5463Z" fill="white"/>
<path d="M31.9238 29.5474V49.0644L31.9467 49.0832V29.5662L31.9238 29.5474Z" fill="#C5221F"/>
<path d="M17.1875 38.3246V71.7115C17.4156 75.3845 20.6381 75.7123 20.6381 75.7123H31.9498L31.9241 49.0644L17.1875 38.3246Z" fill="white"/>
</svg>
