<svg width="128" height="128" viewBox="0 0 128 128" fill="none" xmlns="http://www.w3.org/2000/svg">
<rect width="128" height="128" fill="white"/>
<path d="M87.1066 37.8149L64.2463 55.6556L40.8633 37.8149V37.8198L40.8915 37.8439V62.8256L63.9828 81.0517L87.1066 63.5293V37.8149Z" fill="#EA4335"/>
<path d="M93.107 33.4753L87.1035 37.8149V63.5294L105.994 49.0257V40.2885C105.994 40.2885 103.702 27.8097 93.107 33.4753Z" fill="#FBBC05"/>
<path d="M87.1035 63.5293V96.8816H101.582C101.582 96.8816 105.703 96.4574 105.999 91.7609V49.0256L87.1035 63.5293Z" fill="#34A853"/>
<path d="M40.8926 96.911V62.8257L40.8633 62.8016L40.8926 96.911Z" fill="#C5221F"/>
<path d="M40.8628 37.8192L34.8922 33.5037C24.2978 27.8381 22 40.3121 22 40.3121V49.049L40.8628 62.8009V37.8192Z" fill="#C5221F"/>
<path d="M40.8633 37.8207V62.8024L40.8926 62.8265V37.8448L40.8633 37.8207Z" fill="#C5221F"/>
<path d="M22 49.0554V91.7907C22.2919 96.4921 26.4167 96.9117 26.4167 96.9117H40.8957L40.8628 62.8023L22 49.0554Z" fill="#4285F4"/>
</svg>
