<svg width="128" height="128" viewBox="0 0 128 128" fill="none" xmlns="http://www.w3.org/2000/svg">
<g clip-path="url(#clip0_130_60)">
<rect width="128" height="128" fill="white"/>
<path d="M64.0245 -11C32.7127 -11 23.5552 -10.9677 21.7751 -10.82C15.3494 -10.2857 11.3509 -9.2737 6.99482 -7.10429C3.63776 -5.43684 0.990182 -3.50398 -1.62279 -0.794522C-6.38151 4.14666 -9.26558 10.2256 -10.3096 17.4516C-10.8172 20.9596 -10.9649 21.6751 -10.9949 39.5935C-11.0064 45.5663 -10.9949 53.427 -10.9949 63.9706C-10.9949 95.2655 -10.9603 104.416 -10.8103 106.193C-10.2912 112.448 -9.31057 116.383 -7.23404 120.687C-3.26556 128.926 4.31379 135.111 13.2429 137.419C16.3346 138.215 19.7493 138.654 24.1331 138.862C25.9905 138.942 44.9215 139 63.8641 139C82.8067 139 101.749 138.977 103.561 138.885C108.636 138.646 111.584 138.25 114.843 137.408C119.27 136.272 123.397 134.183 126.933 131.287C130.47 128.391 133.332 124.758 135.32 120.641C137.356 116.44 138.389 112.355 138.856 106.428C138.957 105.135 139 84.5292 139 63.951C139 43.3692 138.954 22.8013 138.852 21.5089C138.379 15.4853 137.347 11.435 135.245 7.15384C133.52 3.64932 131.605 1.03217 128.825 -1.64382C123.864 -6.38422 117.796 -9.26908 110.564 -10.3122C107.061 -10.8188 106.363 -10.9688 88.4353 -11H64.0245Z" fill="url(#paint0_radial_130_60)"/>
<path d="M64.0245 -11C32.7127 -11 23.5552 -10.9677 21.7751 -10.82C15.3494 -10.2857 11.3509 -9.2737 6.99482 -7.10429C3.63776 -5.43684 0.990182 -3.50398 -1.62279 -0.794522C-6.38151 4.14667 -9.26558 10.2256 -10.3096 17.4516C-10.8172 20.9596 -10.9649 21.6751 -10.9949 39.5935C-11.0064 45.5663 -10.9949 53.427 -10.9949 63.9706C-10.9949 95.2655 -10.9603 104.416 -10.8103 106.193C-10.2912 112.448 -9.31057 116.383 -7.23404 120.687C-3.26556 128.926 4.31379 135.111 13.2429 137.419C16.3346 138.215 19.7493 138.654 24.1331 138.862C25.9905 138.942 44.9215 139 63.8641 139C82.8067 139 101.749 138.977 103.561 138.885C108.636 138.646 111.584 138.25 114.843 137.408C119.27 136.272 123.397 134.183 126.933 131.287C130.47 128.391 133.332 124.758 135.32 120.641C137.356 116.44 138.389 112.355 138.856 106.428C138.957 105.135 139 84.5292 139 63.951C139 43.3692 138.954 22.8013 138.852 21.5089C138.379 15.4853 137.347 11.435 135.245 7.15384C133.52 3.64932 131.605 1.03217 128.825 -1.64382C123.864 -6.38422 117.796 -9.26908 110.564 -10.3122C107.061 -10.8188 106.363 -10.9688 88.4353 -11H64.0245Z" fill="url(#paint1_radial_130_60)"/>
<path d="M64.2556 17C51.4226 17 49.812 17.0561 44.7718 17.2856C39.7413 17.516 36.3076 18.3126 33.3031 19.4814C30.1953 20.6887 27.559 22.3036 24.9325 24.9317C22.3041 27.5589 20.6896 30.1959 19.4788 33.3037C18.3073 36.3099 17.5099 39.7456 17.2835 44.7754C17.0591 49.8171 17 51.429 17 64.2655C17 77.1021 17.0571 78.7081 17.2855 83.7498C17.5168 88.7816 18.3132 92.2162 19.4808 95.2215C20.6887 98.3302 22.3031 100.967 24.9306 103.594C27.556 106.224 30.1923 107.842 33.2982 109.05C36.3047 110.218 39.7394 111.015 44.7688 111.246C49.8091 111.475 51.4186 111.531 64.2507 111.531C77.0847 111.531 78.6903 111.475 83.7306 111.246C88.761 111.015 92.1987 110.218 95.2051 109.05C98.312 107.842 100.944 106.224 103.57 103.594C106.198 100.967 107.813 98.3302 109.024 95.2225C110.185 92.2162 110.983 88.7806 111.219 83.7508C111.445 78.7091 111.504 77.1021 111.504 64.2655C111.504 51.429 111.445 49.818 111.219 44.7764C110.983 39.7446 110.185 36.3099 109.024 33.3046C107.813 30.1959 106.198 27.5589 103.57 24.9317C100.941 22.3026 98.313 20.6877 95.2022 19.4814C92.1898 18.3126 88.7541 17.516 83.7237 17.2856C78.6834 17.0561 77.0788 17 64.2418 17H64.2556ZM60.0166 25.5176C61.2747 25.5157 62.6785 25.5176 64.2556 25.5176C76.8721 25.5176 78.3674 25.5629 83.3496 25.7894C87.9567 26.0001 90.4572 26.7702 92.1228 27.4171C94.328 28.2738 95.9001 29.2979 97.553 30.9522C99.2068 32.6065 100.231 34.182 101.089 36.3877C101.736 38.0519 102.507 40.553 102.716 45.1614C102.943 50.144 102.992 51.6407 102.992 64.2547C102.992 76.8687 102.943 78.3654 102.716 83.348C102.506 87.9564 101.736 90.4575 101.089 92.1217C100.233 94.3274 99.2068 95.898 97.553 97.5513C95.8991 99.2056 94.329 100.23 92.1228 101.086C90.4592 101.736 87.9567 102.504 83.3496 102.715C78.3684 102.942 76.8721 102.991 64.2556 102.991C51.6382 102.991 50.1428 102.942 45.1616 102.715C40.5545 102.502 38.054 101.732 36.3874 101.085C34.1822 100.229 32.6072 99.2046 30.9533 97.5503C29.2995 95.896 28.2757 94.3245 27.4172 92.1177C26.7705 90.4536 25.9997 87.9525 25.79 83.3441C25.5636 78.3615 25.5183 76.8648 25.5183 64.2429C25.5183 51.621 25.5636 50.1322 25.79 45.1496C26.0006 40.5412 26.7705 38.0401 27.4172 36.3739C28.2737 34.1682 29.2995 32.5927 30.9533 30.9384C32.6072 29.2841 34.1822 28.26 36.3874 27.4014C38.053 26.7515 40.5545 25.9834 45.1616 25.7717C49.5206 25.5748 51.2099 25.5157 60.0166 25.5058V25.5176ZM89.4787 33.3657C88.3571 33.3657 87.2607 33.6984 86.3282 34.3217C85.3957 34.945 84.6689 35.831 84.2398 36.8675C83.8107 37.904 83.6985 39.0445 83.9175 40.1448C84.1364 41.2451 84.6766 42.2557 85.4699 43.0489C86.2631 43.842 87.2736 44.3821 88.3737 44.6007C89.4737 44.8193 90.6139 44.7067 91.65 44.2771C92.6861 43.8475 93.5715 43.1202 94.1943 42.1872C94.8172 41.2542 95.1494 40.1575 95.149 39.0356C95.149 35.9042 92.6092 33.3637 89.4787 33.3637V33.3657ZM64.2556 39.9927C50.8546 39.9927 39.9894 50.8608 39.9894 64.2655C39.9894 77.6702 50.8546 88.5334 64.2556 88.5334C77.6567 88.5334 88.5189 77.6702 88.5189 64.2655C88.5189 50.8608 77.6557 39.9927 64.2546 39.9927H64.2556ZM64.2556 48.5104C72.954 48.5104 80.0065 55.5638 80.0065 64.2655C80.0065 72.9663 72.954 80.0207 64.2556 80.0207C55.5562 80.0207 48.5047 72.9663 48.5047 64.2655C48.5047 55.5638 55.5562 48.5104 64.2556 48.5104V48.5104Z" fill="white"/>
</g>
<defs>
<radialGradient id="paint0_radial_130_60" cx="0" cy="0" r="1" gradientUnits="userSpaceOnUse" gradientTransform="translate(28.8439 150.553) rotate(-90) scale(148.661 138.266)">
<stop stop-color="#FFDD55"/>
<stop offset="0.1" stop-color="#FFDD55"/>
<stop offset="0.5" stop-color="#FF543E"/>
<stop offset="1" stop-color="#C837AB"/>
</radialGradient>
<radialGradient id="paint1_radial_130_60" cx="0" cy="0" r="1" gradientUnits="userSpaceOnUse" gradientTransform="translate(-36.1258 -0.194252) rotate(78.6806) scale(66.4521 273.918)">
<stop stop-color="#3771C8"/>
<stop offset="0.128" stop-color="#3771C8"/>
<stop offset="1" stop-color="#6600FF" stop-opacity="0"/>
</radialGradient>
<clipPath id="clip0_130_60">
<rect width="128" height="128" fill="white"/>
</clipPath>
</defs>
</svg>
