<svg width="100" height="100" viewBox="0 0 100 100" fill="none" xmlns="http://www.w3.org/2000/svg">
<path d="M26.4277 20.5778C28.0549 22.205 28.0549 24.8432 26.4277 26.4704C13.406 39.492 13.406 60.6043 26.4277 73.626C28.0549 75.2532 28.0549 77.8914 26.4277 79.5186C24.8005 81.1458 22.1623 81.1458 20.5352 79.5186C4.25911 63.2425 4.25911 36.8539 20.5352 20.5778C22.1623 18.9506 24.8005 18.9506 26.4277 20.5778ZM79.4759 20.5778C95.752 36.8539 95.752 63.2425 79.4759 79.5186C77.8487 81.1458 75.2105 81.1458 73.5834 79.5186C71.9562 77.8914 71.9562 75.2532 73.5834 73.626C86.605 60.6043 86.605 39.492 73.5834 26.4704C71.9562 24.8432 71.9562 22.205 73.5834 20.5778C75.2105 18.9506 77.8487 18.9506 79.4759 20.5778ZM38.7888 32.5502C40.4159 34.1774 40.4159 36.8156 38.7888 38.4428C32.4097 44.8218 32.4097 55.1642 38.7888 61.5432C40.4159 63.1704 40.4159 65.8086 38.7888 67.4358C37.1616 69.063 34.5234 69.063 32.8962 67.4358C23.2628 57.8024 23.2628 42.1836 32.8962 32.5502C34.5234 30.923 37.1616 30.923 38.7888 32.5502ZM67.7818 32.5502C77.4151 42.1836 77.4151 57.8024 67.7818 67.4358C66.1546 69.063 63.5164 69.063 61.8892 67.4358C60.262 65.8086 60.262 63.1704 61.8892 61.5432C68.2682 55.1642 68.2682 44.8218 61.8892 38.4428C60.262 36.8156 60.262 34.1774 61.8892 32.5502C63.5164 30.923 66.1546 30.923 67.7818 32.5502ZM50.339 44.0895C53.7908 44.0895 56.589 46.8877 56.589 50.3395C56.589 53.7913 53.7908 56.5895 50.339 56.5895C46.8872 56.5895 44.089 53.7913 44.089 50.3395C44.089 46.8877 46.8872 44.0895 50.339 44.0895Z" fill="white"/>
</svg>
