<svg width="128" height="128" viewBox="0 0 128 128" fill="none" xmlns="http://www.w3.org/2000/svg">
<rect width="128" height="128" fill="#FC471E"/>
<path fill-rule="evenodd" clip-rule="evenodd" d="M83.2673 32.9859C83.2075 33.364 83.1765 33.7518 83.1765 34.1471C83.1765 38.1379 86.3369 41.3732 90.2353 41.3732C94.1336 41.3732 97.2941 38.1379 97.2941 34.1471C97.2941 30.1562 94.1336 26.9209 90.2353 26.9209C88.4983 26.9209 86.9078 27.5633 85.6776 28.6287L67.3468 24L60.7214 51.1299C51.9078 51.7238 43.9812 54.456 38.0014 58.5812C36.3035 56.8767 33.9776 55.8254 31.4118 55.8254C26.2138 55.8254 22 60.1393 22 65.4602C22 69.1638 24.0408 72.3788 27.0337 73.9915C26.8175 75.1407 26.7059 76.3134 26.7059 77.504C26.7059 92.1374 43.5609 104 64.3529 104C85.1449 104 102 92.1374 102 77.504C102 76.3134 101.888 75.1407 101.672 73.9915C104.665 72.3788 106.706 69.1638 106.706 65.4602C106.706 60.1393 102.492 55.8254 97.2941 55.8254C94.7285 55.8254 92.4024 56.8767 90.7045 58.5812C84.1896 54.0871 75.3642 51.2456 65.5986 51.0226L70.7708 29.842L83.2673 32.9859ZM47.8824 79.9129C51.7807 79.9129 54.9412 76.6776 54.9412 72.6866C54.9412 68.6955 51.7807 65.4602 47.8824 65.4602C43.984 65.4602 40.8235 68.6955 40.8235 72.6866C40.8235 76.6776 43.984 79.9129 47.8824 79.9129ZM80.8235 79.9129C84.7219 79.9129 87.8823 76.6776 87.8823 72.6866C87.8823 68.6955 84.7219 65.4602 80.8235 65.4602C76.9252 65.4602 73.7647 68.6955 73.7647 72.6866C73.7647 76.6776 76.9252 79.9129 80.8235 79.9129ZM49.1873 87.5435C48.1064 86.8057 46.6456 87.1045 45.9247 88.2113C45.2038 89.3186 45.496 90.8141 46.5769 91.552C51.6974 95.0461 58.0254 96.7934 64.3529 96.7934C70.6805 96.7934 77.0085 95.0461 82.1285 91.552C83.2099 90.8141 83.5021 89.3186 82.7812 88.2113C82.0602 87.1045 80.5995 86.8057 79.5181 87.5435C75.1882 90.4984 69.7708 91.976 64.3529 91.976C61.1402 91.976 57.9271 91.4565 54.9412 90.4174C52.8922 89.704 50.9496 88.7459 49.1873 87.5435Z" fill="white"/>
</svg>
