<svg width="100" height="100" viewBox="0 0 100 100" fill="none" xmlns="http://www.w3.org/2000/svg">
<path fill-rule="evenodd" clip-rule="evenodd" d="M69.799 18.2106C69.7377 18.598 69.7059 18.9956 69.7059 19.4008C69.7059 23.4913 72.9454 26.8075 76.9412 26.8075C80.937 26.8075 84.1765 23.4913 84.1765 19.4008C84.1765 15.3101 80.937 11.994 76.9412 11.994C75.1608 11.994 73.5305 12.6524 72.2696 13.7444L53.4805 9L46.6895 36.8081C37.6555 37.4169 29.5307 40.2174 23.4014 44.4457C21.6611 42.6986 19.277 41.621 16.6471 41.621C11.3191 41.621 7 46.0428 7 51.4967C7 55.2929 9.09177 58.5883 12.1596 60.2413C11.9379 61.4192 11.8235 62.6212 11.8235 63.8416C11.8235 78.8408 29.1 91 50.4118 91C71.7236 91 89 78.8408 89 63.8416C89 62.6212 88.8857 61.4192 88.6638 60.2413C91.7316 58.5883 93.8235 55.2929 93.8235 51.4967C93.8235 46.0428 89.5045 41.621 84.1765 41.621C81.5467 41.621 79.1624 42.6986 77.4221 44.4457C70.7444 39.8392 61.6983 36.9268 51.6886 36.6982L56.9901 14.9881L69.799 18.2106ZM33.5294 66.3108C37.5252 66.3108 40.7647 62.9946 40.7647 58.9037C40.7647 54.8129 37.5252 51.4967 33.5294 51.4967C29.5336 51.4967 26.2941 54.8129 26.2941 58.9037C26.2941 62.9946 29.5336 66.3108 33.5294 66.3108ZM67.2941 66.3108C71.2899 66.3108 74.5294 62.9946 74.5294 58.9037C74.5294 54.8129 71.2899 51.4967 67.2941 51.4967C63.2983 51.4967 60.0588 54.8129 60.0588 58.9037C60.0588 62.9946 63.2983 66.3108 67.2941 66.3108ZM34.867 74.1321C33.759 73.3758 32.2618 73.6821 31.5228 74.8166C30.7839 75.9515 31.0834 77.4845 32.1914 78.2408C37.4398 81.8223 43.926 83.6132 50.4118 83.6132C56.8975 83.6132 63.3837 81.8223 68.6317 78.2408C69.7401 77.4845 70.0397 75.9515 69.3007 74.8166C68.5617 73.6821 67.0645 73.3758 65.9561 74.1321C61.5179 77.1608 55.9651 78.6754 50.4118 78.6754C47.1187 78.6754 43.8252 78.1429 40.7647 77.0778C38.6645 76.3466 36.6734 75.3645 34.867 74.1321Z" fill="white"/>
</svg>
