<svg width="100" height="100" viewBox="0 0 100 100" fill="none" xmlns="http://www.w3.org/2000/svg">
<path d="M75.9491 24.6749C67.704 28.0898 32.3499 42.7339 22.5816 46.7251C16.0305 49.2816 19.8656 51.6786 19.8656 51.6786C19.8656 51.6786 25.4577 53.5958 30.2518 55.0339C35.0451 56.472 37.6016 54.8744 37.6016 54.8744L60.131 39.6949C68.1201 34.2622 66.2029 38.736 64.285 40.6538C60.131 44.8086 53.2602 51.359 47.508 56.6321C44.9515 58.869 46.2294 60.7862 47.3485 61.7451C51.5025 65.2605 62.8476 72.4509 63.4862 72.93C66.8616 75.3197 73.5012 78.7594 74.511 71.492L78.5056 46.4061C79.7842 37.9378 81.0621 30.1082 81.2216 27.8713C81.7014 22.438 75.9491 24.6749 75.9491 24.6749Z" fill="white"/>
</svg>
