<svg width="128" height="128" viewBox="0 0 128 128" fill="none" xmlns="http://www.w3.org/2000/svg">
<rect width="128" height="128" fill="#24A1DE"/>
<path d="M97.2148 31.5838C86.6611 35.9549 41.4079 54.6994 28.9044 59.8081C20.5191 63.0804 25.428 66.1486 25.428 66.1486C25.428 66.1486 32.5859 68.6026 38.7222 70.4434C44.8577 72.2841 48.1301 70.2392 48.1301 70.2392L76.9676 50.8095C87.1937 43.8557 84.7397 49.582 82.2848 52.0369C76.9676 57.355 68.1731 65.7395 60.8102 72.4891C57.5379 75.3523 59.1736 77.8063 60.606 79.0337C65.9232 83.5335 80.445 92.7372 81.2624 93.3505C85.5829 96.4092 94.0815 100.812 95.3741 91.5097L100.487 59.3998C102.124 48.5604 103.759 38.5385 103.964 35.6753C104.578 28.7207 97.2148 31.5838 97.2148 31.5838Z" fill="white"/>
</svg>
