<svg width="128" height="128" viewBox="0 0 128 128" fill="none" xmlns="http://www.w3.org/2000/svg">
<rect width="128" height="128" fill="#1DA1F2"/>
<path d="M48.0453 97.1875C80.4982 97.1875 98.2487 71.3363 98.2487 48.9181C98.2487 48.1839 98.2487 47.453 98.1971 46.7253C101.65 44.3236 104.631 41.3503 107 37.9439C103.78 39.3159 100.364 40.2154 96.8658 40.613C100.548 38.4935 103.306 35.1573 104.623 31.2296C101.16 33.2056 97.37 34.5983 93.4189 35.3475C90.0827 31.9365 85.4232 30 80.5537 30C70.8649 30 62.8926 37.6654 62.8926 46.9806C62.8926 48.2729 63.0461 49.5612 63.3498 50.8199C49.1702 50.1366 35.9407 43.688 26.9856 33.0951C22.3288 40.8028 24.7383 50.7915 32.4482 55.7414C29.6406 55.6614 26.8934 54.9331 24.44 53.618V53.833C24.4424 61.8778 30.394 68.8702 38.5956 70.4631C35.9981 71.1441 33.2721 71.2436 30.6286 70.7541C32.9343 77.6477 39.5832 82.3994 47.1131 82.5354C40.8663 87.2555 33.1453 89.8195 25.2002 89.8119C23.7963 89.8093 22.3938 89.7276 21 89.567C29.0682 94.5452 38.4587 97.1865 48.0453 97.1743" fill="white"/>
</svg>
