<svg width="100" height="100" viewBox="0 0 100 100" fill="none" xmlns="http://www.w3.org/2000/svg">
<path d="M37.5354 75.9277C62.8892 75.9277 76.7568 55.7315 76.7568 38.2172C76.7568 37.6437 76.7568 37.0726 76.7165 36.5041C79.4142 34.6278 81.7431 32.3049 83.5938 29.6437C81.078 30.7155 78.409 31.4183 75.6764 31.7289C78.5534 30.0731 80.708 27.4666 81.7366 24.3982C79.0309 25.9419 76.0703 27.03 72.9835 27.6153C70.3771 24.9504 66.7369 23.4375 62.9325 23.4375C55.3632 23.4375 49.1348 29.4261 49.1348 36.7036C49.1348 37.7132 49.2548 38.7197 49.492 39.703C38.4142 39.1692 28.0786 34.1312 21.0825 25.8556C17.4444 31.8772 19.3268 39.6808 25.3502 43.548C23.1568 43.4855 21.0104 42.9165 19.0937 41.8891V42.057C19.0956 48.3421 23.7453 53.8049 30.1528 55.0493C28.1235 55.5813 25.9939 55.6591 23.9286 55.2766C25.73 60.6622 30.9244 64.3745 36.8071 64.4808C31.9268 68.1684 25.8948 70.1715 19.6877 70.1655C18.5909 70.1635 17.4952 70.0997 16.4062 69.9742C22.7095 73.8635 30.0458 75.927 37.5354 75.9174" fill="white"/>
</svg>
