<svg width="118" height="120" viewBox="0 0 118 120" fill="none" xmlns="http://www.w3.org/2000/svg">
<path d="M79.451 44.5599C71.0812 44.5599 62.5612 44.2199 54.5912 41.9999C46.7712 39.8299 39.5912 35.6199 33.1912 30.7499C29.0012 27.5799 25.1912 25.0599 19.7512 25.4399C14.4282 25.723 9.33751 27.7109 5.23121 31.1099C-1.68879 37.1699 -0.648792 48.3899 2.12121 56.2599C6.28121 68.1299 18.9412 76.3899 29.7012 81.7499C42.1312 87.9599 55.7912 91.5599 69.4812 93.6399C81.481 95.4599 96.901 96.7899 107.301 88.9499C116.851 81.7499 119.471 65.3099 117.131 54.2099C116.564 50.9278 114.818 47.9657 112.221 45.8799C105.511 40.9799 95.501 44.2499 87.961 44.4199C85.161 44.4799 82.311 44.5399 79.451 44.5599Z" fill="#585858"/>
<path d="M104.781 13.3702C105.323 13.3702 105.761 12.9314 105.761 12.3902C105.761 11.849 105.323 11.4102 104.781 11.4102C104.24 11.4102 103.801 11.849 103.801 12.3902C103.801 12.9314 104.24 13.3702 104.781 13.3702Z" fill="#CFCFCF"/>
<path d="M39.5913 5.16019C40.1326 5.16019 40.5713 4.72149 40.5713 4.18019C40.5713 3.63899 40.1326 3.2002 39.5913 3.2002C39.0501 3.2002 38.6113 3.63899 38.6113 4.18019C38.6113 4.72149 39.0501 5.16019 39.5913 5.16019Z" fill="#CFCFCF"/>
<path d="M51.4414 98.4698C51.9826 98.4698 52.4214 98.0308 52.4214 97.4898C52.4214 96.9488 51.9826 96.5098 51.4414 96.5098C50.9001 96.5098 50.4614 96.9488 50.4614 97.4898C50.4614 98.0308 50.9001 98.4698 51.4414 98.4698Z" fill="#CFCFCF"/>
<path fill-rule="evenodd" clip-rule="evenodd" d="M77.6011 0C77.8772 0 78.1011 0.223858 78.1011 0.5V4.8C78.1011 5.07614 77.8772 5.3 77.6011 5.3C77.3249 5.3 77.1011 5.07614 77.1011 4.8V0.5C77.1011 0.223858 77.3249 0 77.6011 0Z" fill="#BABABA"/>
<path fill-rule="evenodd" clip-rule="evenodd" d="M74.9512 2.6499C74.9512 2.37376 75.175 2.1499 75.4512 2.1499H79.7512C80.0273 2.1499 80.2512 2.37376 80.2512 2.6499C80.2512 2.92604 80.0273 3.1499 79.7512 3.1499H75.4512C75.175 3.1499 74.9512 2.92604 74.9512 2.6499Z" fill="#BABABA"/>
<path fill-rule="evenodd" clip-rule="evenodd" d="M7.5415 18.1001C7.81765 18.1001 8.0415 18.324 8.0415 18.6001V22.9001C8.0415 23.1762 7.81765 23.4001 7.5415 23.4001C7.26536 23.4001 7.0415 23.1762 7.0415 22.9001V18.6001C7.0415 18.324 7.26536 18.1001 7.5415 18.1001Z" fill="#BABABA"/>
<path fill-rule="evenodd" clip-rule="evenodd" d="M4.88135 20.75C4.88135 20.4739 5.10521 20.25 5.38135 20.25H9.69135C9.96749 20.25 10.1913 20.4739 10.1913 20.75C10.1913 21.0261 9.96749 21.25 9.69135 21.25H5.38135C5.10521 21.25 4.88135 21.0261 4.88135 20.75Z" fill="#BABABA"/>
<path fill-rule="evenodd" clip-rule="evenodd" d="M10.7812 78.0098C11.0574 78.0098 11.2812 78.2336 11.2812 78.5098V82.8198C11.2812 83.0959 11.0574 83.3198 10.7812 83.3198C10.5051 83.3198 10.2812 83.0959 10.2812 82.8198V78.5098C10.2812 78.2336 10.5051 78.0098 10.7812 78.0098Z" fill="#BABABA"/>
<path fill-rule="evenodd" clip-rule="evenodd" d="M8.12109 80.6602C8.12109 80.384 8.34495 80.1602 8.62109 80.1602H12.9311C13.2072 80.1602 13.4311 80.384 13.4311 80.6602C13.4311 80.9363 13.2072 81.1602 12.9311 81.1602H8.62109C8.34495 81.1602 8.12109 80.9363 8.12109 80.6602Z" fill="#BABABA"/>
<path fill-rule="evenodd" clip-rule="evenodd" d="M99.6309 33.9199C99.907 33.9199 100.131 34.1438 100.131 34.4199V38.7199C100.131 38.9961 99.907 39.2199 99.6309 39.2199C99.3547 39.2199 99.1309 38.9961 99.1309 38.7199V34.4199C99.1309 34.1438 99.3547 33.9199 99.6309 33.9199Z" fill="#BABABA"/>
<path fill-rule="evenodd" clip-rule="evenodd" d="M96.981 36.5698C96.981 36.2937 97.2048 36.0698 97.481 36.0698H101.781C102.057 36.0698 102.281 36.2937 102.281 36.5698C102.281 36.846 102.057 37.0698 101.781 37.0698H97.481C97.2048 37.0698 96.981 36.846 96.981 36.5698Z" fill="#BABABA"/>
<path d="M69.6605 9.33249L19.4675 15.9235C16.2143 16.3507 13.9234 19.3343 14.3505 22.5875L22.001 80.849C22.4282 84.102 25.4118 86.393 28.665 85.966L78.8579 79.375C82.1109 78.948 84.4019 75.964 83.9749 72.711L76.3249 14.4495C75.8969 11.1963 72.9138 8.90529 69.6605 9.33249Z" fill="#D0D0D0"/>
<path d="M84.281 17.8799H33.5813C30.2953 17.8799 27.6313 20.5438 27.6313 23.8299V82.6799C27.6313 85.9659 30.2953 88.6299 33.5813 88.6299H84.281C87.567 88.6299 90.231 85.9659 90.231 82.6799V23.8299C90.231 20.5438 87.567 17.8799 84.281 17.8799Z" fill="white"/>
<path fill-rule="evenodd" clip-rule="evenodd" d="M27.1313 23.8299C27.1313 20.2676 30.0192 17.3799 33.5813 17.3799H84.281C87.8432 17.3799 90.731 20.2676 90.731 23.8299V82.6799C90.731 86.242 87.8432 89.1299 84.281 89.1299H33.5813C30.0192 89.1299 27.1313 86.242 27.1313 82.6799V23.8299ZM33.5813 18.3799C30.5715 18.3799 28.1313 20.8199 28.1313 23.8299V82.6799C28.1313 85.6897 30.5715 88.1299 33.5813 88.1299H84.281C87.2909 88.1299 89.731 85.6897 89.731 82.6799V23.8299C89.731 20.8199 87.2909 18.3799 84.281 18.3799H33.5813Z" fill="#BABABA"/>
<path d="M35.2012 64.4402L45.3412 47.9102C45.4409 47.6687 45.6101 47.4623 45.8273 47.317C46.0445 47.1717 46.2999 47.0942 46.5612 47.0942C46.8225 47.0942 47.0779 47.1717 47.295 47.317C47.5122 47.4623 47.6814 47.6687 47.7812 47.9102L53.5312 57.2802C53.6288 57.5225 53.7967 57.73 54.0132 57.8762C54.2297 58.0223 54.485 58.1004 54.7462 58.1004C55.0074 58.1004 55.2626 58.0223 55.4791 57.8762C55.6956 57.73 55.8635 57.5225 55.9612 57.2802L65.8012 41.2802C65.8988 41.0379 66.0667 40.8304 66.2832 40.6842C66.4997 40.5381 66.755 40.46 67.0162 40.46C67.2774 40.46 67.5326 40.5381 67.7491 40.6842C67.9657 40.8304 68.1335 41.0379 68.2312 41.2802L82.671 64.8102L35.2012 64.4402Z" fill="white"/>
<path fill-rule="evenodd" clip-rule="evenodd" d="M66.563 41.0985C66.6969 41.0082 66.8547 40.96 67.0162 40.96L66.563 41.0985ZM66.0035 40.2697C66.3026 40.0679 66.6553 39.96 67.0162 39.96C67.3771 39.96 67.7297 40.0679 68.0288 40.2697L68.0288 40.2697C68.3156 40.4633 68.5404 40.7346 68.6775 41.0514L83.0971 64.5486C83.1922 64.7035 83.1957 64.8978 83.1063 65.056C83.017 65.2143 82.8488 65.3116 82.6671 65.3101L35.1973 64.9401C35.017 64.9387 34.8514 64.8404 34.7639 64.6827C34.6765 64.525 34.6807 64.3324 34.775 64.1787L44.8959 47.6799C45.0352 47.3638 45.2618 47.0937 45.5493 46.9014C45.8488 46.701 46.201 46.5942 46.5612 46.5942C46.9214 46.5942 47.2736 46.701 47.5731 46.9014C47.8605 47.0938 48.087 47.3638 48.2264 47.6798L53.9573 57.0186C53.9719 57.0424 53.9845 57.0674 53.995 57.0933C54.0552 57.243 54.159 57.3713 54.293 57.4618C54.4269 57.5521 54.5847 57.6004 54.7462 57.6004C54.9076 57.6004 55.0654 57.5521 55.1993 57.4618M67.0162 40.96C67.1776 40.96 67.3354 41.0082 67.4693 41.0986L67.0162 40.96ZM67.4693 41.0986C67.6033 41.189 67.707 41.3173 67.7675 41.4671C67.7779 41.493 67.7904 41.5179 67.805 41.5417L81.7732 64.3031L36.0902 63.9471L45.7674 48.1716C45.7812 48.149 45.7932 48.1254 45.8033 48.101C45.8652 47.9511 45.9703 47.8229 46.1053 47.7325C46.2402 47.6423 46.3988 47.5942 46.5612 47.5942C46.7236 47.5942 46.8822 47.6423 47.0169 47.7325L47.017 47.7325C47.152 47.8229 47.2571 47.9511 47.3191 48.1011C47.3292 48.1256 47.3412 48.1491 47.355 48.1717L53.0848 57.5088C53.2219 57.8258 53.4469 58.0971 53.7334 58.2905L53.7335 58.2906C54.0326 58.4925 54.3853 58.6004 54.7462 58.6004C55.1071 58.6004 55.4597 58.4924 55.7588 58.2906L55.7589 58.2905C56.0454 58.0971 56.2703 57.8259 56.4074 57.5091L66.2271 41.5421C66.2418 41.5182 66.2545 41.493 66.265 41.467C66.3252 41.3174 66.4289 41.1891 66.5629 41.0986M66.0035 40.2697L66.0034 40.2698L66.0035 40.2697ZM66.0034 40.2698C65.7169 40.4632 65.492 40.7344 65.3549 41.0513L66.0034 40.2698ZM65.3549 41.0513L55.5353 57.0182C55.5206 57.0421 55.5079 57.0672 55.4974 57.0932C55.4371 57.2429 55.3333 57.3712 55.1994 57.4617" fill="#BABABA"/>
<path d="M55.4214 45.6901C57.1832 45.6901 58.6114 44.2619 58.6114 42.5001C58.6114 40.7383 57.1832 39.3101 55.4214 39.3101C53.6596 39.3101 52.2314 40.7383 52.2314 42.5001C52.2314 44.2619 53.6596 45.6901 55.4214 45.6901Z" fill="white"/>
<path fill-rule="evenodd" clip-rule="evenodd" d="M51.7314 42.5001C51.7314 40.4621 53.3835 38.8101 55.4214 38.8101C57.4594 38.8101 59.1114 40.4621 59.1114 42.5001C59.1114 44.538 57.4594 46.1901 55.4214 46.1901C53.3835 46.1901 51.7314 44.538 51.7314 42.5001ZM55.4214 39.8101C53.9358 39.8101 52.7314 41.0144 52.7314 42.5001C52.7314 43.9857 53.9358 45.1901 55.4214 45.1901C56.9071 45.1901 58.1114 43.9857 58.1114 42.5001C58.1114 41.0144 56.9071 39.8101 55.4214 39.8101Z" fill="#BABABA"/>
<path d="M58.65 119.06C78.891 119.06 95.3 118.039 95.3 116.78C95.3 115.521 78.891 114.5 58.65 114.5C38.4088 114.5 22 115.521 22 116.78C22 118.039 38.4088 119.06 58.65 119.06Z" fill="#F2F2F2"/>
</svg>
