<svg width="100" height="100" viewBox="0 0 100 100" fill="none" xmlns="http://www.w3.org/2000/svg">
<path d="M49.9987 60.4167C55.7517 60.4167 60.4154 55.753 60.4154 50C60.4154 44.247 55.7517 39.5833 49.9987 39.5833C44.2457 39.5833 39.582 44.247 39.582 50C39.582 55.753 44.2457 60.4167 49.9987 60.4167Z" stroke="white" stroke-width="5"/>
<path d="M75.9437 47.4187C76.4799 48.475 76.7479 49.0029 76.7479 50C76.7479 50.9971 76.4799 51.525 75.9437 52.5812C73.3337 57.7221 65.8833 68.75 50 68.75C34.1166 68.75 26.6663 57.7221 24.0561 52.5812C23.52 51.525 23.252 50.9971 23.252 50C23.252 49.0029 23.52 48.475 24.0561 47.4187C26.6663 42.2779 34.1166 31.25 50 31.25C65.8833 31.25 73.3337 42.2779 75.9437 47.4187Z" stroke="white" stroke-width="5"/>
<path d="M72.916 14.5833H73.7494C81.2131 14.5833 84.9452 14.5833 87.2639 16.9021C89.5827 19.2208 89.5827 22.9528 89.5827 30.4167V31.25M72.916 85.4167H73.7494C81.2131 85.4167 84.9452 85.4167 87.2639 83.0979C89.5827 80.7792 89.5827 77.0471 89.5827 69.5833V68.75M27.0827 14.5833H26.2493C18.7854 14.5833 15.0535 14.5833 12.7348 16.9021C10.416 19.2208 10.416 22.9528 10.416 30.4167V31.25M27.0827 85.4167H26.2493C18.7854 85.4167 15.0535 85.4167 12.7348 83.0979C10.416 80.7792 10.416 77.0471 10.416 69.5833V68.75" stroke="white" stroke-width="5" stroke-linecap="round"/>
</svg>
