<svg width="100" height="100" viewBox="0 0 100 100" fill="none" xmlns="http://www.w3.org/2000/svg">
<g clip-path="url(#clip0_150_58)">
<path d="M54.2625 81.0788C53.522 81.6816 52.7778 82.155 52.0289 82.5127C51.5202 82.567 51.0081 82.6069 50.4934 82.637V76.6681C49.2625 75.6606 48.0244 74.6144 46.7823 73.5394V82.6381C46.2678 82.6069 45.7556 82.5669 45.2483 82.5125C44.4992 82.1548 43.7539 81.6813 43.0134 81.0786C40.5998 79.1142 38.3408 75.7983 36.6084 71.5305H44.4969C43.1523 70.3284 41.8066 69.0902 40.4609 67.8195H35.3111C34.6961 65.7742 34.2011 63.5684 33.8241 61.255C32.3587 59.7389 30.9356 58.2192 29.5536 56.702C29.8641 60.6522 30.5006 64.3995 31.4489 67.8195H21.9697C19.3156 63.5299 17.6703 58.5577 17.3586 53.2158H26.4586C25.3834 51.9739 24.3372 50.7356 23.3309 49.5047H17.3587C17.4867 47.3158 17.8505 45.1944 18.4025 43.1516C17.1425 41.4327 15.9609 39.7391 14.8714 38.0803C13.2514 42.1949 12.3516 46.6719 12.3516 51.3614C12.3527 71.4024 28.5958 87.6442 48.6369 87.6455C53.3252 87.6455 57.8022 86.7456 61.9153 85.1269C59.7059 83.6736 57.4323 82.0584 55.1203 80.3081C54.8363 80.5822 54.5513 80.8433 54.2625 81.0788ZM26.4781 73.5203C25.8427 72.8849 25.2386 72.218 24.66 71.5306H32.6534C33.2489 73.1542 33.9037 74.7005 34.6369 76.1211C35.5006 77.7906 36.4575 79.3091 37.5023 80.6549C33.3298 79.0686 29.5827 76.6225 26.4781 73.5203Z" fill="white"/>
<path d="M22.2559 26.4607C23.0484 27.8801 23.9495 29.3588 24.9413 30.8819C25.4366 30.3069 25.9391 29.7391 26.4766 29.2016C29.5873 26.0934 33.343 23.6423 37.5251 22.0562C35.5813 24.5519 33.947 27.648 32.646 31.1901H25.1384C25.933 32.4004 26.7896 33.6399 27.6968 34.901H31.4574C31.1155 36.1319 30.822 37.4126 30.5574 38.722C31.5516 40.0001 32.5918 41.2926 33.6741 42.5949C34.0645 39.8671 34.6127 37.2759 35.328 34.9009H46.7812V49.5046H39.7312C40.8777 50.7452 42.0518 51.9835 43.2538 53.2157H46.7812V56.7432C48.0134 57.944 49.2516 59.1205 50.4923 60.2657V53.2157H64.2034C64.0512 58.543 63.243 63.5154 61.9468 67.8194H59.2299C61.013 69.2557 62.773 70.6076 64.4946 71.8626C64.537 71.749 64.5863 71.6451 64.6287 71.5304H72.6149C72.0351 72.2177 71.4323 72.8846 70.7968 73.5201C70.2604 74.0563 69.6974 74.5662 69.1224 75.0613C70.6434 76.0519 72.1195 76.9507 73.5354 77.7432C80.5431 71.1282 84.9234 61.7587 84.9234 51.3613C84.922 31.3205 68.6777 15.0763 48.6355 15.0751C38.238 15.0763 28.871 19.4554 22.2559 26.4607ZM75.3049 67.8198H65.8159C67.0409 63.4043 67.7826 58.4635 67.9263 53.216H79.916C79.6043 58.5579 77.959 63.5299 75.3049 67.8198ZM75.3024 34.901C77.9577 39.1907 79.603 44.1641 79.9159 49.5048H67.9141C67.7691 44.2619 67.0493 39.3138 65.8243 34.901H75.3024ZM70.7952 29.2016C71.4307 29.8371 72.0335 30.5027 72.6121 31.1901H64.6212C64.0257 29.5677 63.3696 28.0215 62.6376 26.6009C61.7738 24.9326 60.8171 23.4141 59.7734 22.0671C63.9446 23.6532 67.6909 26.1007 70.7952 29.2016ZM50.4921 20.0835C51.0079 20.1149 51.5202 20.1548 52.0287 20.2091C52.7777 20.5655 53.5205 21.0391 54.2612 21.6418C56.6748 23.6049 58.9326 26.9221 60.6649 31.1899H50.4921V20.0835ZM50.4921 34.901H61.9623C63.2585 39.204 64.0618 44.1823 64.2152 49.5048H50.4921V34.901ZM43.0121 21.6418C43.7526 21.039 44.4955 20.5655 45.2446 20.2079C45.753 20.1535 46.2654 20.1137 46.781 20.0823V31.1901H36.6276C37.0371 30.1788 37.4673 29.2029 37.9323 28.3041C39.423 25.4144 41.1771 23.141 43.0121 21.6418Z" fill="white"/>
<path d="M88.6023 76.2889C87.8509 74.263 86.8072 72.073 85.5292 69.7511C84.6558 71.4932 83.6653 73.1686 82.5634 74.7608C83.1228 75.9169 83.5916 77.0041 83.9623 78.0068C84.7173 80.0302 85.058 81.7177 85.0519 82.8461C85.0519 83.3813 84.9806 83.7835 84.8875 84.0543C84.7934 84.326 84.6944 84.4674 84.5808 84.5846C84.4659 84.6957 84.3258 84.7935 84.0528 84.8889C83.7834 84.9807 83.3812 85.0519 82.8459 85.0519C81.7805 85.0568 80.215 84.756 78.3413 84.0855C76.4641 83.4199 74.2739 82.4014 71.8713 81.0655C63.6338 76.4871 52.9344 68.1735 42.3847 57.6166C31.8278 47.0671 23.5142 36.3675 18.9345 28.1288C17.5986 25.726 16.5814 23.5371 15.9145 21.6597C15.2453 19.7861 14.9433 18.2207 14.9481 17.155C14.9481 16.6186 15.0206 16.2164 15.1125 15.9482C15.2067 15.6752 15.3047 15.5363 15.4169 15.4203C15.5353 15.3057 15.6753 15.2064 15.9484 15.1124C16.2178 15.0205 16.62 14.948 17.1577 14.948C18.2847 14.9421 19.9723 15.2827 21.9922 16.0353C22.9984 16.4074 24.0906 16.8785 25.2528 17.4389C26.845 16.3372 28.5167 15.3468 30.26 14.4733C27.9333 13.1914 25.7384 12.1466 23.7089 11.3952C21.3339 10.5218 19.1777 10.0071 17.1578 9.99988C16.1972 10.0013 15.2597 10.1221 14.3609 10.4253C13.4647 10.7272 12.6092 11.2274 11.9172 11.9232C11.2238 12.6128 10.7248 13.4671 10.4252 14.3622C10.122 15.2597 10.0013 16.196 10 17.1552C10.0061 19.0639 10.4663 21.0921 11.2527 23.3161C12.0427 25.5377 13.1745 27.9489 14.6109 30.5341C19.5323 39.3658 28.0659 50.29 38.8861 61.115C49.7113 71.9353 60.6355 80.4688 69.4659 85.3903C72.0523 86.8266 74.4636 87.9585 76.6852 88.7486C78.9091 89.5339 80.9373 89.9941 82.8459 90.0002C83.8052 90.0002 84.7414 89.8782 85.6391 89.5761C86.533 89.2755 87.387 88.7777 88.078 88.0843C88.7739 87.3908 89.2739 86.5355 89.5748 85.6416C89.878 84.7428 89.9989 83.8053 90 82.8463C89.9928 80.8239 89.4781 78.6664 88.6023 76.2889Z" fill="white"/>
</g>
<defs>
<clipPath id="clip0_150_58">
<rect width="80" height="80" fill="white" transform="translate(10 10)"/>
</clipPath>
</defs>
</svg>
