<svg width="128" height="128" viewBox="0 0 128 128" fill="none" xmlns="http://www.w3.org/2000/svg">
<rect width="128" height="128" fill="#25D366"/>
<path d="M51.0254 43.8744C51.7878 43.8948 52.6329 43.9361 53.4371 45.721C53.9703 46.9093 54.8685 49.0968 55.6002 50.8787C56.1698 52.2653 56.6382 53.4063 56.7552 53.6399C57.0232 54.1732 57.1882 54.7886 56.8377 55.5065C56.7965 55.5912 56.7577 55.6721 56.7198 55.75C56.439 56.3334 56.239 56.7488 55.7661 57.2913C55.5719 57.5146 55.3694 57.7592 55.1677 58.003C54.8129 58.4317 54.4604 58.8575 54.1584 59.1584C53.6225 59.6913 53.0658 60.2663 53.6841 61.333C54.3027 62.3996 56.4669 65.908 59.6619 68.7388C63.0965 71.7967 66.0832 73.0855 67.5932 73.7367C67.8861 73.8634 68.1236 73.9659 68.2977 74.0525C69.3698 74.5859 70.0086 74.5038 70.6269 73.7859C71.2457 73.0675 73.3065 70.6671 74.0282 69.6005C74.729 68.5338 75.4502 68.698 76.4398 69.0671C77.429 69.4363 82.7057 72.0213 83.7773 72.5546C83.989 72.66 84.1873 72.755 84.3711 72.8434C85.1165 73.2009 85.6236 73.4438 85.8386 73.8063C86.1065 74.2575 86.1065 76.3913 85.2202 78.8942C84.3136 81.3967 79.9436 83.7971 77.9648 83.9817C77.7773 83.9996 77.5911 84.0221 77.399 84.045C75.5857 84.2646 73.284 84.543 65.0823 81.3146C54.9767 77.3409 48.3057 67.4809 46.957 65.4875C46.8506 65.33 46.7772 65.2217 46.7381 65.1692L46.7152 65.1388C46.1016 64.3175 42.3477 59.2946 42.3477 54.1119C42.3477 49.1535 44.7903 46.572 45.9044 45.3945C45.975 45.3199 46.0402 45.2509 46.0992 45.1873C47.0884 44.1207 48.2429 43.854 48.9642 43.854C49.6859 43.854 50.4072 43.854 51.0254 43.8744Z" fill="white"/>
<path fill-rule="evenodd" clip-rule="evenodd" d="M23.1006 102.881C22.7596 104.118 23.8867 105.26 25.1286 104.936L44.3258 99.922C50.3856 103.204 57.2081 104.948 64.1544 104.948H64.1752C87.0336 104.948 105.666 86.4228 105.666 63.6512C105.666 52.6139 101.358 42.233 93.5261 34.437C85.6936 26.6415 75.2848 22.3333 64.1748 22.3333C41.3168 22.3333 22.6836 40.8585 22.6836 63.6308C22.681 70.8749 24.5931 77.9924 28.2281 84.2687L23.1006 102.881ZM34.2536 85.9287C34.6987 84.3133 34.4763 82.5866 33.6365 81.1362C30.5526 75.8116 28.9314 69.7728 28.9336 63.6308C28.9336 44.3398 44.7389 28.5833 64.1748 28.5833C73.6327 28.5833 82.4565 32.2373 89.1169 38.8668C95.7698 45.489 99.4165 54.2754 99.4165 63.6512C99.4165 82.9412 83.6115 98.6978 64.1752 98.6978H64.1544C58.2523 98.6978 52.4524 97.2158 47.3026 94.4262C45.9087 93.6712 44.2801 93.4741 42.7463 93.8749L31.2363 96.8812L34.2536 85.9287Z" fill="white"/>
</svg>
