<svg width="100" height="100" viewBox="0 0 100 100" fill="none" xmlns="http://www.w3.org/2000/svg">
<path d="M37.0254 29.8744C37.7878 29.8948 38.6329 29.9361 39.4371 31.721C39.9703 32.9093 40.8685 35.0968 41.6002 36.8787C42.1698 38.2653 42.6382 39.4063 42.7552 39.6399C43.0232 40.1732 43.1882 40.7886 42.8377 41.5065C42.7965 41.5912 42.7577 41.6721 42.7198 41.75C42.439 42.3334 42.239 42.7488 41.7661 43.2913C41.5719 43.5146 41.3694 43.7592 41.1677 44.003C40.8129 44.4317 40.4604 44.8575 40.1584 45.1584C39.6225 45.6913 39.0658 46.2663 39.6841 47.333C40.3027 48.3996 42.4669 51.908 45.6619 54.7388C49.0965 57.7967 52.0832 59.0855 53.5932 59.7367C53.8861 59.8634 54.1236 59.9659 54.2977 60.0525C55.3698 60.5859 56.0086 60.5038 56.6269 59.7859C57.2457 59.0675 59.3065 56.6671 60.0282 55.6005C60.729 54.5338 61.4502 54.698 62.4398 55.0671C63.429 55.4363 68.7057 58.0213 69.7773 58.5546C69.989 58.66 70.1873 58.755 70.3711 58.8434C71.1165 59.2009 71.6236 59.4438 71.8386 59.8063C72.1065 60.2575 72.1065 62.3913 71.2202 64.8942C70.3136 67.3967 65.9436 69.7971 63.9648 69.9817C63.7773 69.9996 63.5911 70.0221 63.399 70.045C61.5857 70.2646 59.284 70.543 51.0823 67.3146C40.9767 63.3409 34.3057 53.4809 32.957 51.4875C32.8506 51.33 32.7772 51.2217 32.7381 51.1692L32.7152 51.1388C32.1016 50.3175 28.3477 45.2946 28.3477 40.1119C28.3477 35.1535 30.7903 32.572 31.9044 31.3945C31.975 31.3199 32.0402 31.2509 32.0992 31.1873C33.0884 30.1207 34.2429 29.854 34.9642 29.854C35.6859 29.854 36.4072 29.854 37.0254 29.8744Z" fill="white"/>
<path fill-rule="evenodd" clip-rule="evenodd" d="M9.10055 88.8809C8.75964 90.1184 9.88668 91.2605 11.1286 90.9363L30.3258 85.9221C36.3856 89.2042 43.2081 90.948 50.1544 90.948H50.1752C73.0336 90.948 91.6665 72.423 91.6665 49.6513C91.6665 38.614 87.3581 28.2331 79.5261 20.4372C71.6936 12.6416 61.2848 8.33337 50.1748 8.33337C27.3168 8.33337 8.6836 26.8586 8.6836 49.6309C8.68097 56.875 10.5931 63.9925 14.2281 70.2688L9.10055 88.8809ZM20.2536 71.9288C20.6987 70.3134 20.4763 68.5867 19.6365 67.1363C16.5526 61.8117 14.9314 55.773 14.9336 49.6309C14.9336 30.34 30.7389 14.5834 50.1748 14.5834C59.6327 14.5834 68.4565 18.2375 75.1169 24.8669C81.7698 31.4891 85.4165 40.2755 85.4165 49.6513C85.4165 68.9413 69.6115 84.698 50.1752 84.698H50.1544C44.2523 84.698 38.4524 83.2159 33.3026 80.4263C31.9087 79.6713 30.2801 79.4742 28.7463 79.875L17.2363 82.8813L20.2536 71.9288Z" fill="white"/>
</svg>
